<?xml version="1.0" standalone="no"?>
<!DOCTYPE svg PUBLIC "-//W3C//DTD SVG 1.1//EN" "http://www.w3.org/Graphics/SVG/1.1/DTD/svg11.dtd" >
<svg>
<metadata>
Created by FontForge 20120731 at Sun Dec 21 06:07:10 2014
 By Orthosie Webhosting
Copyright (c) 1992-2000, C-DAC, PUNE, INDIA. ISFOC-DEVANAGARI-WEB-TTYOGESH-NORMAL. 
</metadata>
<defs>
<font id="DVWTTYogeshNormal" horiz-adv-x="2" >
  <font-face 
    font-family="DVWTTYogeshNormal"
    font-weight="400"
    font-stretch="normal"
    units-per-em="1000"
    panose-1="4 0 0 0 0 0 0 0 0 0"
    ascent="800"
    descent="-200"
    x-height="482"
    cap-height="485"
    bbox="-386 -276 823 750"
    underline-thickness="24"
    underline-position="-287"
    unicode-range="U+0020-203A"
  />
<missing-glyph horiz-adv-x="750" 
d="M46 0v750h658v-750h-658zM658 46v658h-566v-658h566z" />
    <glyph glyph-name=".notdef" horiz-adv-x="750" 
d="M46 0v750h658v-750h-658zM658 46v658h-566v-658h566z" />
    <glyph glyph-name=".null" horiz-adv-x="0" 
 />
    <glyph glyph-name="nonmarkingreturn" horiz-adv-x="321" 
 />
    <glyph glyph-name="space" unicode=" " horiz-adv-x="321" 
 />
    <glyph glyph-name="exclam" unicode="!" horiz-adv-x="224" 
d="M201 625l-8 -460h-40l-9 460h57zM207 -1h-68v60h68v-60z" />
    <glyph glyph-name="quotedbl" unicode="&#x22;" horiz-adv-x="212" 
d="M118 552l-35 -133h-60l53 133h42z" />
    <glyph glyph-name="numbersign" unicode="#" horiz-adv-x="471" 
d="M302 73q-30 -13 -67 -13q-34 0 -67 13l-13 -29q21 -8 40.5 -12t42.5 -4q39 0 77 15zM444 210q-11 -82 -79 -138l-19 25q59 48 67 117zM365 406q31 -23 53 -60t27 -77l-32 -4q-10 71 -67 116zM155 436q39 15 79 15q42 0 81 -15l-13 -30q-31 14 -67 14t-68 -15zM26 269
q6 42 25 76.5t54 60.5l20 -25q-26 -19 -45 -50.5t-23 -65.5zM124 99q-27 19 -44 50.5t-23 64.5l-31 -4q5 -40 25.5 -75t52.5 -61z" />
    <glyph glyph-name="dollar" unicode="$" horiz-adv-x="711" 
d="M520 571h-57v54h57v-54zM664 610q0 -65 -51 -108.5t-121 -43.5q-69 0 -120 43t-51 109h50q0 -49 33.5 -82.5t87.5 -33.5q53 0 88 33t35 83h49zM679 208q0 -56 -33 -98t-84 -42q-44 0 -77 34l23 41q9 -14 15 -20q20 -21 40 -21q33 0 51 34t18 76q0 55 -10 78
q-16 37 -64 37q-11 0 -96 -71q-41 -34 -74 -34q-15 0 -37 5q-7 1 -19 5q8 -14 12 -22q12 -26 12 -48q0 -58 -36.5 -88.5t-86.5 -30.5q-72 0 -147 91q-24 30 -60 91l40 23q30 -56 50 -84q62 -84 119 -84q32 0 52.5 24.5t20.5 58.5q0 45 -27.5 69.5t-67.5 24.5q-12 0 -29 -4
q-6 -1 -16 -5l-15 36l53 9q61 14 61 80q0 31 -14 49q-17 22 -52 22q-32 0 -71 -33q-13 -11 -33 -33l-38 28q24 26 41 38q52 38 104 38q50 0 79.5 -29.5t29.5 -75.5q0 -64 -53 -93q11 -3 21 -6q19 -7 40 -18q16 -8 34 -8q25 0 49.5 11.5t46.5 36.5q27 32 49 47q28 19 60 19
q62 0 93 -49q26 -42 26 -109z" />
    <glyph glyph-name="percent" unicode="%" horiz-adv-x="392" 
d="M361 116q0 -57 -42.5 -90t-105.5 -33q-44 0 -97 29q-76 42 -89 68l34 33q2 -12 49 -49q57 -45 100 -45q39 0 66 16q36 21 36 64q0 36 -65 94q-62 51 -123 102q-66 60 -66 98q0 40 25 59.5t65 19.5h183v-38h-186q-17 0 -30.5 -10.5t-13.5 -27.5q0 -22 67 -77
q112 -93 125 -105q68 -65 68 -108z" />
    <glyph glyph-name="ampersand" unicode="&#x26;" horiz-adv-x="199" 
d="M210 444h-210v38h210v-38zM144 267h-69v68h69v-68zM144 85h-69v68h69v-68z" />
    <glyph glyph-name="quotesingle" unicode="'" horiz-adv-x="224" 
d="M207 552l-54 -133h-41l34 133h61z" />
    <glyph glyph-name="parenleft" unicode="(" horiz-adv-x="271" 
d="M232 -163h-51q-4 0 -37 55q-42 71 -69 146q-37 105 -37 203q0 105 37 210q26 74 69 142q33 52 37 52h51q-4 0 -37 -50q-43 -66 -70 -140q-38 -106 -38 -214q0 -103 37 -206q27 -74 70 -144q34 -54 38 -54z" />
    <glyph glyph-name="parenright" unicode=")" horiz-adv-x="271" 
d="M241 241q0 -98 -37 -203q-25 -72 -69 -145q-33 -56 -37 -56h-52q4 0 37 53q45 71 71 144q38 105 38 207q0 110 -37 213q-26 73 -71 141q-33 50 -38 50h52q5 0 37 -51q43 -67 69 -142q37 -105 37 -211z" />
    <glyph glyph-name="asterisk" unicode="*" horiz-adv-x="353" 
d="M296 0h-49v545h49v-545z" />
    <glyph glyph-name="plus" unicode="+" horiz-adv-x="541" 
d="M552 444h-79v-444h-49v212q-15 -2 -30.5 -4t-16.5 -2q-18 0 -44 9q-4 1 -12 5q4 -10 6 -16q7 -22 7 -42q0 -60 -37 -91q-33 -28 -85 -28q-71 0 -146 91q-25 30 -61 91l38 23q31 -56 52 -84q63 -84 118 -84q32 0 53.5 24.5t21.5 58.5q0 44 -28 69t-68 25q-12 0 -28 -4
q-5 -1 -16 -5l-18 36l54 9q29 7 46 28t17 52q0 30 -15 49q-18 22 -52 22t-73 -33q-13 -11 -32 -33l-38 28q24 26 41 38q52 38 104 38q50 0 80 -30t30 -75q0 -65 -55 -93q9 -3 14 -4q16 -5 23.5 -8t25.5 -15q2 -1 7 -5q12 -4 19 -5q24 -6 35 -6q16 0 41 8q8 2 22 8v187h-88
v38h216v-38z" />
    <glyph glyph-name="comma" unicode="," horiz-adv-x="224" 
d="M207 54l-54 -144h-41l34 144h61z" />
    <glyph glyph-name="hyphen" unicode="-" horiz-adv-x="292" 
d="M272 220h-258v40h258v-40z" />
    <glyph glyph-name="period" unicode="." horiz-adv-x="224" 
d="M207 -1h-70v68h70v-68z" />
    <glyph glyph-name="slash" unicode="/" horiz-adv-x="284" 
d="M260 535l-195 -640l-44 8l195 642z" />
    <glyph glyph-name="zero" unicode="0" horiz-adv-x="400" 
d="M353 239q0 -64 -44.5 -110.5t-109.5 -46.5q-64 0 -109 46t-45 111q0 67 42 113t112 46q65 0 109.5 -46.5t44.5 -112.5zM308 241q0 50 -31 87t-78 37q-48 0 -78.5 -37.5t-30.5 -88.5q0 -50 30.5 -87t78.5 -37q47 0 78 38t31 88z" />
    <glyph glyph-name="one" unicode="1" horiz-adv-x="400" 
d="M329 0h-48v262q-35 -30 -83 -30q-52 0 -90 37t-38 90t38.5 91.5t89.5 38.5q71 0 108 -61q12 -20 23 -62v-366zM284 356q0 44 -23.5 69.5t-62.5 25.5q-35 0 -57 -26.5t-22 -66.5t22 -67t57 -27q37 0 61.5 25.5t24.5 66.5z" />
    <glyph glyph-name="two" unicode="2" horiz-adv-x="400" 
d="M358 332q0 -91 -72 -154q-24 -21 -73 -45l109 -167l-36 -25l-111 182q-3 -1 -16 -2.5t-19 -1.5q-30 0 -50 12q-24 15 -24 42q0 17 13 28t32 11q28 0 55 -22q9 -7 21 -22q37 0 84 58q37 46 37 106q0 49 -34 83t-83 34q-29 0 -78 -22q-16 -7 -44 -23l-32 34q16 16 72 35
q42 14 80 14q70 0 119.5 -44.5t49.5 -110.5z" />
    <glyph glyph-name="three" unicode="3" horiz-adv-x="400" 
d="M347 163q0 -70 -58 -110q-42 -29 -76 -29l73 -101l-36 -29l-87 128q-30 5 -45 10q-45 17 -45 51q0 42 45 42q27 0 54 -33q9 -11 22 -34q34 7 51 16q52 28 52 86q0 57 -47 82q-32 17 -86 17q-16 0 -26 -1t-17 -3l-26 43h72q39 0 69.5 22t30.5 58t-27 56t-65 20
q-26 0 -68 -19q-14 -6 -37 -19l-25 37q29 13 47 19q54 19 88 19q60 0 96 -30t36 -81t-31 -79q-10 -9 -31 -18q43 -11 70 -44t27 -76z" />
    <glyph glyph-name="four" unicode="4" horiz-adv-x="400" 
d="M366 398q0 -53 -68 -108q-22 -18 -68 -45q32 -21 48 -36q48 -46 48 -97q0 -58 -38 -88q-34 -27 -89 -27q-53 0 -90 31t-37 86q0 45 45 91q15 15 45 37q-45 29 -67 48q-68 59 -68 110q0 26 15.5 51t34.5 35l34 -19q-6 -9 -10 -14q-24 -35 -24 -58q0 -45 60 -91
q20 -15 61 -37q40 23 60 38q60 47 60 93q0 19 -14 46q-4 9 -16 26l38 17q14 -16 20 -27q20 -33 20 -62zM281 116q0 41 -40 76q-32 28 -45 28q-26 -18 -39 -30q-39 -37 -39 -74q0 -38 21.5 -61.5t58.5 -23.5q35 0 59 23t24 62z" />
    <glyph glyph-name="five" unicode="5" horiz-adv-x="400" 
d="M364 2q0 -42 -35 -74q-11 -10 -36 -25l-36 34q20 7 29 13q29 19 29 52q0 46 -24 118q-8 24 -25 64q-15 -6 -24 -9q-32 -10 -58 -10q-65 0 -106 45t-41 121q0 46 23 106q7 19 23 50l40 -22q-12 -29 -18 -47q-18 -54 -18 -89q0 -55 26.5 -90.5t72.5 -35.5q31 0 54 12
q7 4 17 12q-4 15 -5 23q-5 26 -5 43q0 36 11.5 61.5t38.5 25.5q24 0 36 -19.5t12 -47.5q0 -37 -21 -73q-7 -11 -21 -28q20 -45 30 -73q31 -86 31 -137z" />
    <glyph glyph-name="six" unicode="6" horiz-adv-x="400" 
d="M349 -68l-46 -22l-29 109q-7 -1 -12 -2q-36 -7 -47 -7q-60 0 -103 39.5t-43 98.5q0 44 22 75q26 36 54 43q-30 14 -45 26q-46 38 -46 91q0 52 44 81q35 23 80 23q21 0 52 -4q11 -1 30 -5l12 -47q-18 8 -29 11q-34 11 -56 11q-34 0 -60 -21t-26 -54q0 -39 32 -62.5
t75 -23.5h54l14 -39q-14 2 -29.5 3t-28.5 1q-44 0 -73 -30t-29 -82q0 -41 28.5 -71.5t67.5 -30.5q16 0 41 12q4 2 11 6q-2 6 -2 9q-5 23 -5 39q0 22 9 38t27 16q22 0 32.5 -16t10.5 -38q0 -30 -15 -54q-5 -8 -16 -18z" />
    <glyph glyph-name="seven" unicode="7" horiz-adv-x="400" 
d="M380 272q0 -133 -44 -203q-47 -74 -138 -74t-134 87q-37 74 -37 201q0 41 7 110q2 23 7 61l51 29q-6 -45 -8 -72q-9 -89 -9 -132q0 -107 23 -167q31 -80 100 -80q47 0 82 36t35 85q-61 0 -101.5 42.5t-40.5 107.5q0 51 28 89.5t73 38.5q52 0 79 -46t27 -113zM332 274
q0 53 -9 78q-15 41 -52 41q-27 0 -40 -27t-13 -63q0 -44 30 -81.5t74 -37.5q0 1 3 18q7 46 7 72z" />
    <glyph glyph-name="eight" unicode="8" horiz-adv-x="448" 
d="M388 73q-4 -8 -58 -40q-64 -38 -100 -38q-51 0 -99 39q-30 24 -56 61q-13 19 -13 41q0 24 14.5 53t32.5 47l196 247l36 -30l-196 -245q-17 -21 -24 -34q-11 -20 -11 -38t13 -32q22 -25 39 -38q37 -30 68 -30q29 0 83 38q17 12 48 38z" />
    <glyph glyph-name="nine" unicode="9" horiz-adv-x="400" 
d="M349 -32q0 -32 -28 -54q-9 -7 -29 -16l-40 30q21 0 35.5 11.5t14.5 31.5q0 9 -7 19t-11 15l-201 252q-22 29 -29 42q-12 23 -12 50q0 56 37 96t94 40q55 0 95 -39t40 -95q0 -58 -45 -92q-41 -31 -101 -31l167 -211q9 -12 14.5 -23.5t5.5 -25.5zM258 356q0 36 -25 63
t-60 27q-37 0 -59 -27t-22 -66t22.5 -67t58.5 -28q38 0 61.5 27.5t23.5 70.5z" />
    <glyph glyph-name="colon" unicode=":" horiz-adv-x="224" 
d="M157 328h-69v69h69v-69zM157 87h-69v67h69v-67z" />
    <glyph glyph-name="semicolon" unicode=";" horiz-adv-x="224" 
d="M211 246h-63v57h63v-57zM207 54l-57 -144h-41l32 144h66z" />
    <glyph glyph-name="less" unicode="&#x3c;" horiz-adv-x="412" 
d="M424 444h-107v-123h-196q-5 -4 -5 -9q0 -7 5.5 -19t21.5 -33q12 -17 28 -32t27 -15q22 0 45 8q52 18 65 18q24 0 37.5 -20t13.5 -47q0 -64 -38 -106q-45 -49 -89 -49q13 -12 20 -19q23 -22 35.5 -31.5t40.5 -26.5q23 -14 25 -15l-27 -39q-8 5 -13 9q-34 23 -66 52
q-22 19 -51 50q-15 15 -16 17l-27 -1q-33 0 -61 17q-34 20 -34 53q0 18 12 31t31 13q34 0 69 -36q11 -12 28 -37q38 5 56 13q56 26 56 90q0 23 -1 27q-4 15 -16 15q-32 -11 -59 -19t-47 -8q-36 0 -80 57.5t-44 89.5q0 18 13 29t30 11h161v85h-267v38h424v-38z" />
    <glyph glyph-name="equal" unicode="=" horiz-adv-x="504" 
d="M515 444h-132q13 -16 19 -26q20 -34 20 -64q0 -29 -12.5 -49t-36.5 -36q78 -33 78 -126q0 -55 -38.5 -90.5t-97.5 -35.5q-72 0 -140 78q-47 54 -90 146l-32 78l42 26q14 -38 28 -75q35 -82 78 -139q56 -75 112 -75q48 0 70 31q17 24 17 62q0 42 -25 74t-65 32h-85l-17 38
h100q22 1 33 5q34 15 34 60q0 27 -24 59q-8 10 -25 27h-326v38h515v-38z" />
    <glyph glyph-name="greater" unicode="&#x3e;" horiz-adv-x="414" 
d="M640 444h-299q13 -16 19 -26q20 -34 20 -64t-13.5 -51.5t-40.5 -36.5q7 -5 11 -7q12 -8 17 -12l23 -24q18 22 31 32q40 33 77 33q43 0 73 -32t30 -75q0 -48 -41 -114q-13 -22 -41 -57l-43 24q26 30 39 49q40 58 40 99q0 28 -11 45q-15 23 -48 23q-31 0 -61 -34
q-10 -11 -24 -35q1 -11 1 -17q0 -54 -19 -89q-31 -58 -108 -58q-74 0 -130 73q-41 54 -68 136q-22 69 -18 76l41 29l16 -70q23 -80 56 -132q45 -71 102 -71q47 0 65 28q13 20 13 59q0 40 -18 70t-52 30h-71l-19 39h85q20 7 29 14q29 22 29 60q0 27 -24 59q-8 10 -24 27h-284
v38h640v-38z" />
    <glyph glyph-name="question" unicode="?" horiz-adv-x="468" 
d="M441 485q0 -83 -85 -141q-28 -19 -85 -42v-137h-49v156q57 23 85 40q86 54 86 119q0 47 -32 80t-79 33q-36 0 -73 -19q-52 -27 -58 -44l-35 39q29 21 49 31q60 31 114 31q66 0 114 -42t48 -104zM282 0h-69v68h69v-68z" />
    <glyph glyph-name="at" unicode="@" horiz-adv-x="468" 
d="M704 444h-302v-196l112 54q-7 10 -7 23q0 22 15.5 40t37.5 18q48 0 48 -59q0 -16 -20 -32q-6 -5 -21 -13l50 -90q-33 -8 -49 -15q-50 -23 -50 -63q0 -38 16.5 -56.5t46.5 -18.5q32 0 52 21q6 7 14 21l34 -39q-11 -14 -21 -20q-32 -21 -78 -21q-53 0 -83.5 32.5
t-30.5 81.5q0 38 27 67t65 29l-30 61l-128 -61v-208h-49v186l-200 -147l-30 41l206 135q-30 36 -47 53q-51 53 -70 53q-20 0 -86 -31q-22 -10 -63 -32l-31 37q3 4 80 37q84 36 106 36q25 0 81 -59q52 -55 54 -64v199h-353v38h704v-38z" />
    <glyph glyph-name="A" unicode="A" horiz-adv-x="468" 
d="M731 -44q-15 -13 -26 -19q-34 -19 -73 -19q-51 0 -80.5 22t-29.5 51q0 23 13 41t31 24q-33 3 -49 8q-49 17 -49 63q0 37 29 58q33 24 69 24l-36 60l-128 -61v-208h-49v186l-200 -147l-30 41l206 135q-30 36 -47 53q-51 53 -70 53q-20 0 -86 -31q-22 -10 -63 -32l-31 37
q3 4 80 37q84 36 106 36q25 0 81 -59q52 -55 54 -64v199h-353v38h704v-38h-302v-196l112 54q-8 13 -8 27q0 21 14.5 37.5t39.5 16.5q48 0 48 -59q0 -16 -20 -32q-6 -5 -21 -13l50 -90q-34 -1 -51 -5q-52 -13 -52 -52q0 -26 24 -37q18 -8 49 -8q18 0 36 9q6 3 14 9l17 -40
q-28 -6 -41 -12q-42 -19 -42 -55q0 -23 13 -34t47 -11q30 0 51 17q7 5 15 18z" />
    <glyph glyph-name="B" unicode="B" horiz-adv-x="417" 
d="M429 444h-75v-175v-9q-4 -21 -21 -38t-37 -25q-3 -1 -7 -3l-34 28h6q16 4 31 20q9 10 12 24q0 4 1 13v165h-177v-231l213 -197q8 -3 15.5 -19t7.5 -33q0 -34 -36 -51q-12 -5 -36 -10l-40 41q5 -1 12.5 -2t10.5 -1q15 0 22.5 3.5t12.5 10t5 14.5q0 10 -9 21l-9 9l-219 205
v240h-78v38h429v-38z" />
    <glyph glyph-name="C" unicode="C" horiz-adv-x="401" 
d="M473 273q-7 6 -19.5 9t-34.5 3q-33 0 -59 -31t-26 -62v-192h-48v140q-12 -12 -21 -18q-28 -18 -64 -18q-55 0 -94 38t-39 93q0 53 37.5 89.5t92.5 36.5q15 0 31 -5q5 -1 13 -5v-41q-6 4 -10 6q-13 6 -29 6q-35 0 -60 -25t-25 -61q0 -37 22.5 -65.5t57.5 -28.5q32 0 56 21
q32 28 32 49v232h-286v38h412v-38h-78v-162q14 16 23 23q29 23 60 23q28 0 48 -9q3 -1 8 -5v-41z" />
    <glyph glyph-name="D" unicode="D" horiz-adv-x="401" 
d="M473 273q-7 6 -19.5 9t-34.5 3q-33 0 -59 -31t-26 -62v-192h-48v140q-12 -12 -21 -18q-28 -18 -64 -18q-55 0 -94 38t-39 93q0 53 37.5 89.5t92.5 36.5q15 0 31 -5q5 -1 13 -5v-41q-6 4 -10 6q-13 6 -29 6q-35 0 -60 -25t-25 -61q0 -37 22.5 -65.5t57.5 -28.5q32 0 56 21
q32 28 32 49v232h-286v38h412v-38h-78v-162q14 16 23 23q29 23 60 23q28 0 48 -9q3 -1 8 -5v-41zM152 -8h-69v68h69v-68z" />
    <glyph glyph-name="E" unicode="E" horiz-adv-x="401" 
d="M607 444h-273v-141q12 16 22 24q30 24 71 24q56 0 91 -34t35 -85q0 -47 -47 -112q-15 -21 -48 -56l-41 29q28 28 42 46q43 56 43 97q0 36 -17.5 56.5t-52.5 20.5q-39 0 -68.5 -38t-29.5 -72v-203h-48v140q-13 -12 -22 -18q-29 -18 -63 -18q-55 0 -94 38t-39 93
q0 53 37.5 89.5t92.5 36.5q15 0 31 -5q5 -1 13 -5v-41q-6 4 -10 6q-13 6 -29 6q-35 0 -60 -25t-25 -61q0 -37 22.5 -65.5t57.5 -28.5q32 0 56 21q32 28 32 49v232h-286v38h607v-38z" />
    <glyph glyph-name="F" unicode="F" horiz-adv-x="401" 
d="M607 444h-273v-141q12 16 22 24q30 24 71 24q56 0 91 -34t35 -85q0 -47 -47 -112q-15 -21 -48 -56l-41 29q28 28 42 46q43 56 43 97q0 36 -17.5 56.5t-52.5 20.5q-39 0 -68.5 -38t-29.5 -72v-203h-48v140q-13 -12 -22 -18q-29 -18 -63 -18q-55 0 -94 38t-39 93
q0 53 37.5 89.5t92.5 36.5q15 0 31 -5q5 -1 13 -5v-41q-6 4 -10 6q-13 6 -29 6q-35 0 -60 -25t-25 -61q0 -37 22.5 -65.5t57.5 -28.5q32 0 56 21q32 28 32 49v232h-286v38h607v-38zM152 -8h-69v68h69v-68z" />
    <glyph glyph-name="G" unicode="G" horiz-adv-x="401" 
d="M604 444h-270v-141q8 16 41 35q26 15 52 15q55 0 90.5 -34.5t35.5 -86.5q0 -47 -47 -112q-15 -21 -48 -56l-41 29q28 28 42 46q43 56 43 97q0 36 -17.5 56.5t-52.5 20.5q-39 0 -68.5 -38t-29.5 -72v-203h-48v153l-205 -140l-30 38l122 70q-21 5 -33 10q-72 31 -72 104
q0 53 37.5 89.5t92.5 36.5q18 0 33 -5q4 -1 11 -5v-40q-7 4 -11 5q-15 6 -28 6q-35 0 -60 -25t-25 -61q0 -33 23 -58t57 -25q14 0 20.5 1.5t16.5 7.5l51 34v248h-286v38h604v-38z" />
    <glyph glyph-name="H" unicode="H" horiz-adv-x="473" 
d="M676 444h-270v-124q16 12 26 17q32 16 67 16q55 0 90.5 -34.5t35.5 -86.5q0 -60 -47 -133q-15 -24 -48 -62l-39 31q28 31 41 51q42 63 42 117q0 35 -21 57t-57 22q-41 0 -69 -21q-9 -7 -21 -22v-272h-48v303h-117q-34 0 -60 -22t-26 -56q0 -63 46 -134q15 -23 47 -59
l-40 -25q-33 43 -49 70q-50 84 -50 148q0 30 22 57q7 9 22 21h-131v40h336v101h-358v38h676v-38z" />
    <glyph glyph-name="I" unicode="I" horiz-adv-x="297" 
d="M309 444h-35v38h35v-38zM383 278q-21 -11 -35 -16q-44 -16 -91 -16q-39 0 -87 15q-16 5 -40 15q-23 -13 -34 -23q-35 -32 -35 -71q0 -44 31 -62q22 -13 56 -13q9 0 15 0.5t10 1.5q-1 5 -1.5 10.5t-0.5 9.5q0 26 11 37t30 11q21 0 36 -12t15 -35q0 -22 -25 -38
q-4 -2 -13 -7q5 -6 7 -10q9 -13 14 -18t27 -26q6 -5 17 -16l-42 -29l-39 50q-7 11 -16 28q-1 3 -4 8q-15 -3 -27.5 -4t-18.5 -1q-58 0 -94.5 31.5t-36.5 87.5q0 44 41 82q13 12 42 30q-8 3 -28 31q-26 37 -26 71q0 39 29 62t68 23q45 0 74.5 -23t29.5 -67q0 -41 -36 -72
q-12 -10 -36 -23q12 -5 21 -7q32 -8 66 -8q61 0 108 24q8 4 18 12v-43zM194 398q0 22 -14 35t-43 13q-24 0 -36.5 -13.5t-12.5 -34.5q0 -35 22 -61q7 -8 22 -19q21 9 31 17q31 25 31 63z" />
    <glyph glyph-name="J" unicode="J" horiz-adv-x="435" 
d="M521 208q-16 -12 -27 -18q-34 -18 -70 -18q-43 0 -73 26q-33 29 -33 74q0 46 32 74t77 28q9 0 20.5 -2t22.5 -6l13 -39q-11 3 -17 4q-23 5 -34 5q-30 0 -48 -17t-18 -45q0 -29 16 -46.5t49 -17.5q30 0 63 23q11 7 27 24v-49zM521 99q-35 -22 -59 -33q-73 -34 -136 -34
q-91 0 -154 57q-45 41 -82 119q-12 26 -29 71q-5 15 -14 40l41 22l18 -52q7 -6 12 -8q17 -9 33 -9q22 0 31.5 11t9.5 30v131h-192v38h448v-38h-209v-125q0 -30 -17 -54q-23 -32 -67 -32q-10 0 -17 1t-13 3q24 -56 45 -83q65 -84 159 -84q61 0 133 38q23 12 59 38v-47z" />
    <glyph glyph-name="K" unicode="K" horiz-adv-x="435" 
d="M521 208q-16 -12 -27 -18q-34 -18 -70 -18q-43 0 -73 26q-33 29 -33 74q0 46 32 74t77 28q9 0 20.5 -2t22.5 -6l13 -39q-11 3 -17 4q-23 5 -34 5q-30 0 -48 -17t-18 -45q0 -29 16 -46.5t49 -17.5q30 0 63 23q11 7 27 24v-49zM521 99q-35 -22 -59 -33q-73 -34 -136 -34
q-91 0 -154 57q-45 41 -82 119q-12 26 -29 71q-5 15 -14 40l41 22l18 -52q7 -6 12 -8q17 -9 33 -9q22 0 31.5 11t9.5 30v131h-192v38h448v-38h-209v-125q0 -30 -17 -54q-23 -32 -67 -32q-10 0 -17 1t-13 3q24 -56 45 -83q65 -84 159 -84q61 0 133 38q23 12 59 38v-47z
M362 -66h-69v68h69v-68z" />
    <glyph glyph-name="L" unicode="L" horiz-adv-x="433" 
d="M521 99q-33 -22 -102.5 -45t-118.5 -23q-98 0 -161 64q-41 42 -65 108q-9 25 -19 74q-3 15 -8 42l41 22l9 -53q8 -6 13 -8q16 -8 30 -8q26 0 39 13t13 32v127h-192v38h446v-38h-207v-129q0 -27 -21 -50q-26 -28 -67 -28q-36 0 -44 8q17 -59 35 -88q56 -88 158 -88
q71 0 153 36q27 12 68 36v-42zM521 201l-258 -99l-35 36l164 49q-25 9 -37 18q-38 29 -38 79q0 42 32 66t78 24q9 0 20.5 -2t22.5 -6l13 -37q-11 3 -17 4q-20 4 -34 4q-29 0 -47.5 -17.5t-18.5 -45.5q0 -29 16 -46t49 -17q27 0 61 15q11 5 29 16v-41z" />
    <glyph glyph-name="M" unicode="M" horiz-adv-x="269" 
d="M281 444h-80v-243q1 -13 0 -19q-4 -19 -21 -19q-23 0 -65.5 42.5t-42.5 67.5q0 12 16 16q2 0 9 2h56v153h-153v38h281v-38z" />
    <glyph glyph-name="N" unicode="N" horiz-adv-x="269" 
d="M281 444h-80v-237q1 -13 0 -19q-4 -19 -21 -19q-23 0 -65.5 42.5t-42.5 67.5q0 11 16 15q2 0 9 2h56v148h-153v38h281v-38zM193 25h-68v68h68v-68z" />
    <glyph glyph-name="O" unicode="O" horiz-adv-x="269" 
d="M281 444h-80v-229q1 -12 0 -18q-4 -19 -21 -19q-23 0 -65.5 42.5t-42.5 67.5q0 11 16 15q2 0 9 2h56v139h-153v38h281v-38zM358 162l-228 -160l-33 39l261 158v-37z" />
    <glyph glyph-name="P" unicode="P" horiz-adv-x="305" 
d="M389 153q-31 -20 -51 -29q-61 -29 -110 -29q-52 0 -91.5 29t-39.5 75q0 39 27 68q9 9 27 21q-26 10 -39 18q-39 26 -39 68q0 21 8.5 42t19.5 28h-101v38h317v-38h-157q-13 -10 -19 -17q-20 -23 -20 -49q0 -29 22.5 -47t45.5 -18h80l17 -34h-53q-29 0 -56 -20
q-32 -24 -32 -58q0 -31 26.5 -50t61.5 -19q44 0 103 35q49 29 53 39v-53z" />
    <glyph glyph-name="Q" unicode="Q" horiz-adv-x="305" 
d="M389 173l-234 -171l-34 40l147 80q-8 -3 -17.5 -5.5t-22.5 -2.5q-53 0 -90 25q-41 28 -41 73q0 39 27 67q9 9 27 20q-26 8 -39 16q-39 25 -39 66q0 24 13 45q8 14 15 18h-101v38h317v-38h-157q-13 -7 -19 -13q-20 -19 -20 -45q0 -29 24 -47q20 -15 44 -15h80l17 -33h-53
q-30 0 -56 -19q-32 -24 -32 -58q0 -30 26.5 -46t61.5 -16q45 0 103 33q49 28 53 38v-50z" />
    <glyph glyph-name="R" unicode="R" horiz-adv-x="488" 
d="M539 261h-63v57h63v-57zM559 444h-137v-123h-199q-7 -6 -7 -13q0 -9 5.5 -21.5t22.5 -34.5q30 -40 64 -40q16 0 52 14.5t52 14.5q24 0 36 -22t12 -52q0 -71 -39.5 -110.5t-103.5 -39.5q-66 0 -137 55q-51 40 -99 102l-38 56l37 34l36 -54q46 -63 88 -100q62 -54 113 -54
q43 0 69 30t26 79q0 23 -5 28t-19 5q-6 0 -38 -13t-52 -13q-45 0 -92 58q-43 53 -43 91q0 21 14 29.5t35 8.5h162v85h-374v38h559v-38z" />
    <glyph glyph-name="S" unicode="S" horiz-adv-x="308" 
d="M319 444h-319v38h319v-38zM393 176q-24 -25 -42 -37q-55 -38 -114 -38q-45 0 -77 27t-32 76q0 45 35 84q11 13 36 30h-152v38h282v-38h-60q-12 0 -35 -16q-56 -39 -56 -96q0 -33 17 -49.5t44 -16.5q55 0 110 51q47 43 44 54v-69z" />
    <glyph glyph-name="T" unicode="T" horiz-adv-x="308" 
d="M319 444h-319v38h319v-38zM393 171l-228 -174l-33 40l131 75q-4 -2 -9.5 -3t-16.5 -1q-42 0 -74 27q-35 30 -35 78q0 46 35 80q11 11 36 25h-152v38h282v-38h-60q-13 0 -35 -13q-56 -33 -56 -90q0 -69 72 -69q42 0 96 39q49 35 47 43v-57z" />
    <glyph glyph-name="U" unicode="U" horiz-adv-x="499" 
d="M562 444h-130v-81q36 -12 52 -30q24 -27 24 -67q0 -100 -87 -170q-81 -65 -180 -65q-63 0 -102.5 37.5t-39.5 94.5q0 64 52 103q-29 12 -43 22q-44 31 -44 76q0 33 16 58q5 8 19 22h-99v38h562v-38zM385 361v83h-225q-7 -2 -26 -25q-23 -29 -23 -51q0 -34 31 -56
q27 -19 56 -19q13 0 23 1t21 4l20 -36q-5 1 -16 1q-40 0 -70.5 -27.5t-30.5 -68.5t30 -70t72 -29q45 0 93 27q16 9 40 28q-9 3 -32 42q-31 52 -31 101q0 51 34 78q11 9 34 17zM462 266q0 23 -10 39q-13 21 -43 21q-24 0 -37 -18.5t-13 -44.5q0 -34 15 -65q20 -42 38 -49
q17 19 25 32q25 41 25 85z" />
    <glyph glyph-name="V" unicode="V" horiz-adv-x="382" 
d="M394 444h-394v38h394v-38zM468 298h-136q6 -4 22 -31q20 -34 20 -59q0 -48 -26 -80q-30 -36 -84 -36q-62 0 -116 61q-39 44 -70 115q-24 56 -22 63l41 30q-12 -8 43 -117q59 -117 129 -117q26 0 41.5 23t15.5 54q0 37 -35 87q-11 16 -36 43h213v-36z" />
    <glyph glyph-name="W" unicode="W" horiz-adv-x="382" 
d="M394 444h-394v38h394v-38zM468 298h-136q6 -4 22 -31q20 -34 20 -59q0 -48 -26 -80q-30 -36 -84 -36q-62 0 -116 61q-39 44 -70 115q-24 56 -22 63l41 30q-12 -8 43 -117q59 -117 129 -117q26 0 41.5 23t15.5 54q0 37 -35 87q-11 16 -36 43h213v-36zM288 -29h-69v68h69
v-68z" />
    <glyph glyph-name="X" unicode="X" horiz-adv-x="382" 
d="M394 444h-394v38h394v-38zM465 325l-133 -1q8 -5 20 -25q18 -29 18 -58q0 -44 -33 -70t-83 -26q-62 0 -113 55q-39 42 -65 102l-20 56l41 29q-9 -14 37 -104q53 -102 125 -102q27 0 44 14t17 42q0 34 -32 82q-10 16 -33 42l210 1v-37zM465 150l-222 -152l-30 37l252 151
v-36z" />
    <glyph glyph-name="Y" unicode="Y" horiz-adv-x="351" 
d="M363 444h-363v38h363v-38zM434 326h-297q-12 0 -12 -11q0 -9 8.5 -23t17.5 -26q14 -19 23 -26q15 -12 34 -12q20 0 47.5 9.5t42.5 9.5q26 0 42 -23t16 -51q0 -62 -64 -100q-21 -12 -65 -26l92 -73l-36 -28l-96 91h-30q-32 0 -58 14t-26 41q0 14 11.5 24.5t27.5 10.5
q19 0 46 -23q24 -20 24 -26q43 8 64 17q64 27 64 78q0 17 -7 24t-20 7q-8 0 -44 -11q-20 -6 -33 -6q-45 0 -88 48t-43 89q0 20 14.5 31t34.5 11h310v-40z" />
    <glyph glyph-name="Z" unicode="Z" horiz-adv-x="351" 
d="M435 193q-9 -4 -14 -6q-17 -6 -33 -6q-13 0 -28.5 4.5t-25.5 8.5v-27q0 -46 -36 -78q-46 -41 -86 -41q10 -7 15 -10q17 -11 30 -17l48 -23l-29 -35q-8 5 -14 8q-19 11 -44 27q-10 7 -33 25q-8 6 -22 18l-18 -2q-33 0 -54 9q-30 13 -30 42q0 15 10.5 26.5t25.5 11.5
q28 0 56 -24q9 -8 22 -24q37 5 55 13q56 25 56 82q0 22 -5.5 26.5t-20.5 4.5q-9 0 -23 -4q-37 -11 -51 -11q-41 0 -81.5 48.5t-40.5 81.5q0 24 19 35q12 7 29 7h140v81h-252v38h363v-38h-63v-120h-177q-9 -2 -9 -8q0 -7 6.5 -19t24.5 -35q10 -14 25 -21.5t28 -7.5q19 0 32 4
q32 10 46 10q17 0 29 -8q21 -14 22 -14q13 -5 25.5 -7t23.5 -2q27 0 50 13l9 6v-42z" />
    <glyph glyph-name="bracketleft" unicode="[" horiz-adv-x="413" 
d="M501 228q-19 -13 -32 -19q-42 -20 -81 -20q-15 0 -29.5 1.5t-24.5 3.5v-27q0 -46 -36 -78q-46 -41 -86 -41q10 -7 15 -10q17 -11 30 -17l48 -23l-29 -35q-8 5 -14 8q-19 11 -44 27q-10 7 -33 25q-8 6 -22 18l-18 -2q-33 0 -54 9q-30 13 -30 42q0 15 10.5 26.5t25.5 11.5
q28 0 56 -24q9 -8 22 -24q37 5 55 13q56 25 56 82q0 31 -26 31q-5 0 -42 -10q-19 -5 -32 -5q-41 0 -81.5 48.5t-40.5 81.5q0 24 19 35q12 7 29 7h140v81h-252v38h425v-38h-125v-120h-177q-5 -7 -5 -13q0 -12 7.5 -24t19.5 -25q26 -29 53 -29q24 0 41 7t37 7q17 0 29 -8
q21 -14 22 -14q17 -6 34 -6q32 0 72 17q49 21 68 40v-48zM501 137l-113 -137l-47 32l160 154v-49z" />
    <glyph glyph-name="backslash" unicode="\" horiz-adv-x="345" 
d="M356 444h-356v38h356v-38zM427 206q-7 -2 -15.5 -4.5t-18.5 -2.5q-16 0 -43 8q-9 2 -24 8q0 -53 -39 -98t-105 -45q-45 0 -104 31q-19 10 -51 32l31 37q25 -21 40 -31q49 -32 84 -32q49 0 74 37q22 33 22 82q0 48 -19 75q-23 33 -72 33q-15 0 -38 -12q-17 -9 -22 -14
l-32 37q19 10 30 14q34 14 57 14q74 0 115 -61q13 -20 27 -62q10 -5 16 -7q20 -8 31 -8q30 0 56 18v-49z" />
    <glyph glyph-name="bracketright" unicode="]" horiz-adv-x="430" 
d="M474 444h-110v-144h-166q-34 0 -59 -24t-25 -59q0 -60 45.5 -104.5t107.5 -44.5q82 0 125 70l40 -24q-30 -44 -67.5 -65.5t-90.5 -21.5q-83 0 -144.5 57.5t-61.5 135.5q0 51 34 86t85 35h130v103h-317v38h474v-38z" />
    <glyph glyph-name="asciicircum" unicode="^" horiz-adv-x="422" 
d="M467 444h-111v-97h-196q-21 0 -32.5 -12.5t-11.5 -37.5q0 -39 43 -65t91 -26q57 0 100 25q14 8 33 26l36 -29q-5 -3 -7 -5q-19 -15 -27 -19l-29 -15v-106h-188q-21 0 -34 -14t-13 -35q0 -46 51 -72q40 -20 88 -20q26 0 63 15q55 22 65 36l34 -29q-29 -22 -43 -29
q-54 -28 -117 -28q-82 0 -133 31q-56 34 -56 98q0 33 21.5 57.5t54.5 24.5h161v59q-18 -4 -27 -5.5t-23 -1.5q-65 0 -122 30q-69 37 -69 97q0 43 24 64t62 21h155v62h-310v38h467v-38z" />
    <glyph glyph-name="underscore" unicode="_" horiz-adv-x="422" 
d="M467 444h-111v-97h-196q-22 0 -35 -12.5t-13 -37.5q0 -42 41 -67.5t97 -25.5q57 0 99 24q14 8 31 25l34 -30q-7 -5 -10 -7q-13 -9 -19 -12l-29 -15v-106h-211q-20 0 -34 -14t-14 -35q0 -48 51 -75q42 -22 100 -22q43 0 71 12q37 16 37 48q0 24 -14 37q-4 4 -15 8l32 28
q9 -3 24 -22q20 -25 20 -46q0 -54 -50 -79q-40 -20 -103 -20q-81 0 -137 33q-62 37 -62 100q0 33 21.5 57.5t52.5 24.5h185v59q-14 -4 -26 -6.5t-24 -2.5q-79 0 -131 28q-63 34 -63 101q0 43 25 64t64 21h155v62h-310v38h467v-38z" />
    <glyph glyph-name="grave" unicode="`" horiz-adv-x="427" 
d="M474 444h-113v-139h-174q-33 0 -54 -26t-21 -61q0 -61 47 -106q44 -42 96 -42q47 0 81.5 29.5t34.5 72.5q0 30 -20 58q-6 9 -20 22l33 31q21 -14 37 -45t16 -68q0 -61 -45.5 -98.5t-116.5 -37.5q-76 0 -133.5 54.5t-57.5 131.5q0 57 37 91t93 34h119v99h-313v38h474v-38z
" />
    <glyph glyph-name="a" unicode="a" horiz-adv-x="420" 
d="M467 444h-111v-97h-196q-22 0 -35 -12.5t-13 -37.5q0 -42 41 -67.5t97 -25.5q71 0 99 16.5t28 53.5q0 23 -17 33q-5 3 -17 6l34 23q15 -9 22 -16q22 -22 22 -53q0 -45 -32 -69q-10 -8 -33 -16v-99h-205q-22 0 -38 -12.5t-16 -36.5q0 -48 51 -74q42 -21 100 -21
q44 0 71 11q37 15 37 47q0 24 -14 37q-4 4 -15 8l32 28q9 -3 24 -22q20 -25 20 -46q0 -55 -50 -79q-39 -19 -103 -19q-83 0 -137 32q-62 36 -62 100q0 34 25 58t58 24h176v55q-23 -5 -50 -5q-79 0 -131 28q-63 34 -63 101q0 43 25 64t64 21h155v62h-310v38h467v-38z" />
    <glyph glyph-name="b" unicode="b" horiz-adv-x="480" 
d="M513 444h-101v-123h-189q-6 -5 -6 -11q0 -10 5.5 -22.5t21.5 -34t32 -32t32 -6.5q32 9 61 17.5t43 8.5q24 0 36 -22t12 -52q0 -71 -39.5 -110.5t-103.5 -39.5q-66 0 -137 55q-51 40 -99 102l-38 56l37 34q-3 -17 75 -106q90 -102 162 -102q43 0 69 30t26 79q0 23 -5 28
t-19 5q-6 0 -38 -13t-52 -13q-45 0 -92 58q-43 53 -43 91q0 21 14 29.5t35 8.5h152v85h-364v38h513v-38z" />
    <glyph glyph-name="c" unicode="c" horiz-adv-x="480" 
d="M513 444h-101v-109h-189q-6 -4 -6 -9q0 -7 6 -20t22 -34q26 -38 54 -38q6 0 9 1q47 14 64 18q29 8 40 8q24 0 36 -22.5t12 -52.5q0 -69 -40 -101q-36 -29 -103 -29q-66 0 -137 50q-52 36 -99 92q-19 25 -38 51l37 35q-1 -6 35 -51q44 -55 89 -90q62 -48 113 -48
q46 0 70.5 21.5t24.5 67.5q0 23 -5 28t-19 5q-6 0 -38 -13t-52 -13q-45 0 -92 56q-43 51 -43 88q0 21 14 29.5t35 8.5h152v71h-364v38h513v-38zM341 -42h-69v62h69v-62z" />
    <glyph glyph-name="d" unicode="d" horiz-adv-x="476" 
d="M509 444h-97v-107h-204q-2 -1 -4.5 -2t-2.5 -6q0 -6 6 -15t23 -25q13 -11 25 -18.5t24 -7.5q35 6 65 10.5t48 4.5q35 0 48 -15.5t13 -44.5q0 -54 -55 -84q-45 -25 -100 -25q-38 0 -73 9q-11 3 -27 9q16 -26 26 -38q31 -38 54 -38q19 0 43 5q62 13 77 13q23 0 40.5 -16.5
t17.5 -38.5q0 -58 -50 -89q-43 -27 -106 -27q-93 0 -185 59q-30 19 -73 59l28 35q41 -38 69 -57q85 -58 161 -58q41 0 74 21.5t33 52.5q0 11 -4 16t-20 5q-36 -8 -64.5 -13.5t-49.5 -5.5q-32 0 -74 42t-42 71q0 3 5 18q-18 10 -40.5 26t-35.5 25l-43 34l29 36q42 -39 69 -58
q84 -58 156 -58q32 0 67 16q46 21 46 54q0 12 -9 15.5t-23 3.5q-11 0 -61 -10q-25 -5 -44 -5q-27 0 -71 38q-47 41 -47 72q0 22 12 32t31 10h170v70h-364v38h509v-38z" />
    <glyph glyph-name="e" unicode="e" horiz-adv-x="476" 
d="M509 444h-97v-85h-204q-7 -3 -7 -7q0 -5 6 -12.5t23 -20.5q3 -2 19.5 -11t29.5 -9q35 5 66 8.5t47 3.5q35 0 48 -12t13 -35q0 -33 -32 -54q-10 -7 -32 -15v-107h-206q-18 0 -32 -13t-14 -33q0 -53 57 -83q19 -10 58 -20q-1 4 -2.5 15.5t-1.5 17.5q0 31 15 49q21 26 71 26
q39 0 67 -15.5t28 -47.5q0 -45 -41 -67q-33 -18 -86 -18q-95 0 -153.5 40t-58.5 108q0 33 22 55t55 22h174v53q-2 0 -11.5 -1t-20.5 -1q-49 0 -98 11q-72 16 -132 53q-10 7 -18.5 14t-21.5 15l29 32q42 -30 69 -44q84 -44 156 -44q36 0 67 10q46 15 46 42q0 12 -19 12h-13
q-16 0 -49 -6t-56 -6q-26 0 -75.5 33t-49.5 58q0 17 14.5 25t35.5 8h170v56h-364v38h509v-38zM385 -22q0 16 -14 25t-35 9q-52 0 -52 -43q0 -9 5 -25q0 -2 3 -7q31 0 46 2q47 8 47 39z" />
    <glyph glyph-name="f" unicode="f" horiz-adv-x="426" 
d="M472 444h-113v-141h-167q-34 0 -57.5 -22.5t-23.5 -60.5q0 -91 77 -136q25 -15 78 -28q-12 13 -18 22q-18 29 -18 64q0 38 26 64t65 26q41 0 68.5 -26.5t27.5 -68.5q0 -55 -44 -87q-40 -29 -97 -29q-81 0 -145 55q-68 58 -68 142q0 52 34.5 85.5t84.5 33.5h128v107h-310
v38h472v-38zM371 135q0 27 -13 42t-34 15q-22 0 -37 -15t-15 -40q0 -39 21 -60q7 -7 22 -14q19 5 28 11q28 19 28 61z" />
    <glyph glyph-name="g" unicode="g" horiz-adv-x="425" 
d="M472 444h-113v-127h-162q-35 0 -60.5 -22.5t-25.5 -58.5q0 -91 77 -125q25 -11 78 -16q-12 11 -18 20q-18 27 -18 62q0 38 26.5 62.5t64.5 24.5q41 0 68.5 -25.5t27.5 -66.5q0 -55 -44 -85q-40 -27 -97 -27q-86 0 -146 44q-67 49 -67 130q0 51 34.5 83.5t84.5 32.5h128
v94h-310v38h472v-38zM306 -39h-69v60h69v-60zM371 170q0 55 -47 55q-22 0 -37 -14t-15 -39q0 -39 21 -59q7 -6 22 -12q19 6 28 12q28 19 28 57z" />
    <glyph glyph-name="h" unicode="h" horiz-adv-x="345" 
d="M356 444h-48v-178q0 -51 -26 -81q-29 -34 -84 -34q-53 0 -84.5 31.5t-31.5 81.5v180h-82v38h356v-38zM260 266v178h-130v-180q0 -35 16 -56.5t49 -21.5q35 0 50 23t15 57z" />
    <glyph glyph-name="i" unicode="i" horiz-adv-x="260" 
d="M271 444h-271v38h271v-38zM349 302h-182q-35 0 -50.5 -13.5t-15.5 -38.5q0 -68 65 -146q21 -26 66 -65l-31 -32q-49 43 -73 72q-74 88 -74 166q0 44 25 68t65 24h205v-35z" />
    <glyph glyph-name="j" unicode="j" horiz-adv-x="305" 
d="M317 444h-317v38h317v-38zM389 180l-227 -137l-30 42l233 123q-35 35 -54 52q-58 52 -79 52q-30 0 -93 -32q-21 -10 -57 -32l-29 37q42 24 67 36q75 36 117 36q29 0 93 -62q21 -20 59 -63v-52z" />
    <glyph glyph-name="k" unicode="k" horiz-adv-x="327" 
d="M339 444h-339v38h339v-38zM417 307h-176q-36 0 -61 -23t-25 -59q0 -50 58 -122q19 -24 59 -62l-30 -36q-44 47 -66 75q-67 88 -67 145q0 34 22 61q7 9 22 21h-131v36h395v-36z" />
    <glyph glyph-name="l" unicode="l" horiz-adv-x="308" 
d="M395 178q-24 -27 -43 -40q-58 -41 -128 -41q-99 0 -162 81q-21 27 -44 82q15 -5 40 -10t38 -5q50 0 89 32t39 81q0 38 -25.5 65.5t-61.5 27.5q-27 0 -43.5 -14.5t-16.5 -38.5t20 -37.5t42 -9.5v-33q-22 -1 -34 1q-76 12 -76 81q0 45 36 69q30 20 74 20q60 0 96.5 -37.5
t36.5 -93.5q0 -75 -54 -113q-68 -49 -123 -35q17 -25 30 -37q42 -38 97 -38q69 0 128 55q19 18 45 56v-68z" />
    <glyph glyph-name="m" unicode="m" horiz-adv-x="308" 
d="M399 167l-277 -169l-30 45l151 66q-5 0 -10 -0.5t-11 -0.5q-24 0 -48 6q-35 9 -67 28q-38 23 -67 72q-10 16 -22 46q17 -2 41.5 -3.5t34.5 -1.5q52 0 89 26q41 29 41 77q0 38 -25.5 65.5t-61.5 27.5q-27 0 -43.5 -14.5t-16.5 -38.5t20 -37.5t42 -9.5v-39q-37 2 -55 8
q-56 20 -56 80q0 45 37 69q31 20 74 20q57 0 95 -38t38 -93q0 -75 -55 -111q-65 -43 -126 -31q23 -34 49 -51q38 -24 82 -24q66 0 128 42q20 14 49 42v-58z" />
    <glyph glyph-name="n" unicode="n" horiz-adv-x="433" 
d="M472 444h-104v-126h-180q-32 0 -51 -19t-19 -52q0 -86 87 -115q29 -9 87 -11q-2 5 -3 13t-1 20q0 26 8 39q12 19 41 19q20 0 33 -15t13 -35q0 -32 -25 -54q-4 -3 -13 -9q5 -11 7 -17q10 -23 15 -32l39 -67h-59l-22 49l-22 55h-14q-106 0 -163.5 41.5t-57.5 118.5
q0 47 30 79t75 32h143v86h-316v38h472v-38z" />
    <glyph glyph-name="o" unicode="o" horiz-adv-x="433" 
d="M472 444h-104v-126h-183q-28 0 -47.5 -20.5t-19.5 -50.5q0 -57 36 -87q40 -34 114 -34h10t5 1q-1 4 -1.5 8.5t-0.5 12.5q0 24 10 39q14 21 48 21q26 0 37 -15.5t11 -39.5q0 -21 -20 -36q-6 -4 -20 -11l19 -47q7 -17 21 -40q4 -8 13 -21l-67 -12q-28 -5 -47 -20.5
t-19 -42.5q0 -30 25 -48t59 -18q31 0 54 12q20 14 21 15l25 -37q-17 -10 -29 -15q-37 -15 -77 -15q-48 0 -85 27q-42 30 -42 79q0 59 58 86q19 8 58 15l-31 68q-5 0 -10 -0.5t-11 -0.5q-77 0 -128 23q-86 39 -86 133q0 50 30.5 80.5t77.5 30.5h141v86h-317v38h472v-38z" />
    <glyph glyph-name="p" unicode="p" horiz-adv-x="424" 
d="M469 444h-111v-120h-181q-63 0 -63 -72q0 -51 39.5 -82t93.5 -31q10 0 20.5 1t20.5 3q5 26 10 38q16 39 43 39q23 0 33.5 -12.5t10.5 -32.5q0 -25 -26 -47q-8 -7 -27 -17l20 -66q10 -32 28 -63q3 -5 8 -14h-51q-3 6 -5 12q-10 24 -19 51.5t-17 56.5q-1 6 -3 16l-192 -133
l-29 40l173 95q-67 0 -119 36q-60 42 -60 110q0 50 24.5 79.5t67.5 29.5h152v83h-310v38h469v-38z" />
    <glyph glyph-name="q" unicode="q" horiz-adv-x="357" 
d="M393 444h-102v-97h-151q-17 -1 -25 -3q-25 -8 -25 -34q0 -27 28 -51q4 -4 13 -9q15 7 26 10q23 6 42 6l31 -2l23 -39q-6 1 -13.5 1.5t-19.5 0.5q-40 0 -64 -11q-35 -16 -35 -54q0 -46 31 -66q22 -14 58 -14q17 0 21 0.5t6 2.5q-1 5 -1.5 10.5t-0.5 9.5q0 24 8 37
q12 20 41 20q42 0 42 -46q0 -28 -26 -42q-4 -2 -14 -6l48 -89l-42 -22l-40 96q-6 -1 -17.5 -2t-18.5 -1q-56 0 -92 19q-52 28 -52 94q0 28 16 49q5 7 16 16q-21 14 -31 23q-32 30 -32 61q0 48 40 64q13 5 41 7h120v61h-242v38h393v-38z" />
    <glyph glyph-name="r" unicode="r" horiz-adv-x="554" 
d="M592 444h-105v-127h-180q-29 0 -45.5 -15t-16.5 -50q0 -51 39 -83t93 -32q10 0 20.5 2t19.5 4q-3 9 10 39q17 38 45 38q22 0 32.5 -12.5t10.5 -32.5q0 -25 -26 -47q-8 -7 -26 -17q4 -18 7.5 -34t13 -46t22 -64t17.5 -44h-50l-25 82q-23 -19 -39 -28q-49 -28 -97 -28
q-65 0 -96 49q-10 16 -18 50q-54 2 -80 10q-81 25 -81 95q0 37 20.5 61.5t54.5 24.5t59 -23q4 -4 10 -12l-24 -24q-7 8 -12 11q-16 12 -31 12q-36 0 -36 -40q0 -46 60.5 -67t67.5 -11q4 6 6 10q9 14 14.5 20t16 13t17.5 9q-22 18 -32 31q-32 40 -32 84q0 49 25 75t68 26h149
v91h-438v38h592v-38zM438 45l-14 61q-15 -3 -27.5 -4t-18.5 -1q-17 0 -42 5q-8 1 -24 6q-24 -6 -35 -12q-36 -18 -36 -49q0 -28 21.5 -45.5t50.5 -17.5q31 0 76 24.5t49 32.5z" />
    <glyph glyph-name="s" unicode="s" horiz-adv-x="545" 
d="M557 444h-79v-444h-49v111h-132v-50q1 -9 0 -13q-4 -14 -19 -14q-14 0 -52.5 40.5t-38.5 55.5t9.5 19t18.5 4h32v70h-98q-37 0 -62.5 23.5t-25.5 61.5q0 27 19 45t45 18h102v73h-227v38h557v-38zM429 151v293h-153v-110h-138q-16 -1 -23.5 -7.5t-7.5 -24.5
q0 -20 11.5 -30t30.5 -10h146v-111h134z" />
    <glyph glyph-name="t" unicode="t" horiz-adv-x="553" 
d="M565 444h-79v-444h-49v135q-37 -30 -62 -45q-76 -45 -147 -45q-64 0 -99 36q-28 29 -28 67q0 30 13 51q4 7 14 16q-22 10 -33 19q-34 28 -34 69q0 46 46 63q15 5 46 8h110v70h-263v38h565v-38zM437 184v260h-129v-110h-150q-22 0 -36.5 -6.5t-14.5 -27.5q0 -26 25 -47
q8 -7 26 -16q11 6 19 8q26 8 59 8q21 0 26.5 -0.5t9.5 -2.5l17 -38q-11 1 -31.5 2t-32.5 1q-31 0 -53.5 -18.5t-22.5 -47.5q0 -32 25 -49t58 -17q59 0 137 49q64 40 68 52z" />
    <glyph glyph-name="u" unicode="u" horiz-adv-x="424" 
d="M469 444h-111v-127h-181q-29 0 -46 -15t-17 -50q0 -51 39.5 -83t93.5 -32q10 0 20.5 2t20.5 4q-2 5 4 25q15 52 49 52q23 0 33.5 -12.5t10.5 -32.5q0 -25 -26 -47q-8 -7 -27 -17l21 -79q5 -14 18 -50q10 -27 22 -59h-50l-26 82q-24 -20 -41 -29q-52 -29 -104 -29
q-46 0 -83 29q-41 32 -41 77q0 33 23.5 56t55.5 29q-20 17 -30 30q-31 40 -31 84q0 50 24.5 75.5t67.5 25.5h150v91h-308v38h469v-38zM308 45l-15 61q-15 -3 -27.5 -4t-17.5 -1q-33 0 -67 11q-12 2 -17 2q-26 0 -46.5 -17.5t-20.5 -45.5t21.5 -47.5t51.5 -19.5q43 0 94 29
q41 23 44 32z" />
    <glyph glyph-name="v" unicode="v" horiz-adv-x="250" 
d="M262 444h-25v38h25v-38zM335 160q-7 -22 -61 -48q-45 -22 -94 -22q-53 0 -90.5 29t-37.5 74q0 36 23 64q7 9 24 21q-27 20 -40 33q-40 42 -40 86q0 47 25.5 70.5t71.5 23.5q35 0 61 -20.5t26 -53.5v-29h-42v29q0 39 -43 39q-21 0 -35 -16t-14 -42q0 -46 31 -78
q10 -10 31 -23q10 5 18 7q24 7 56 7l25 -2l22 -38q-8 1 -22 2t-18 1q-44 0 -77 -20.5t-33 -58.5q0 -31 22.5 -49.5t56.5 -18.5q57 0 111 44q18 14 43 45v-56z" />
    <glyph glyph-name="w" unicode="w" horiz-adv-x="250" 
d="M262 444h-25v38h25v-38zM335 175l-260 -173l-32 35l153 82q-16 -2 -25 -2q-50 0 -84.5 29.5t-34.5 71.5q0 36 23 61q7 8 24 18q-27 13 -40 23q-40 32 -40 77q0 47 25.5 70.5t71.5 23.5q35 0 61 -20.5t26 -53.5v-29h-42v29q0 39 -43 39q-21 0 -35 -16t-14 -42
q0 -46 31 -68q10 -7 31 -13q10 4 18 6q27 7 56 7l25 -2l22 -37l-40 2q-46 0 -78 -17.5t-32 -55.5q0 -32 22 -49.5t57 -17.5q57 0 111 38q18 12 43 39v-55z" />
    <glyph glyph-name="x" unicode="x" horiz-adv-x="252" 
d="M264 444h-264v38h264v-38zM340 281h-167v-73v-15q-3 -12 -20 -12q-14 0 -55.5 46.5t-41.5 61.5q0 19 12 24.5t24 5.5h248v-38z" />
    <glyph glyph-name="y" unicode="y" horiz-adv-x="252" 
d="M264 444h-264v38h264v-38zM341 281h-183v-73v-15q-3 -12 -21 -12q-13 0 -54.5 46.5t-41.5 61.5q0 19 12 24.5t24 5.5h264v-38zM342 162l-236 -160l-30 40l266 157v-37z" />
    <glyph glyph-name="z" unicode="z" horiz-adv-x="270" 
d="M283 444h-283v38h283v-38zM356 208l-174 -90l26 -49q3 -8 3 -12q0 -16 -21 -16q-12 0 -31 5.5t-47 16.5q-35 15 -35 35q0 12 13 26q4 4 13 11l231 97q-19 24 -31 36q-37 39 -62 51q-11 5 -27.5 8t-31.5 3q-26 0 -52 -5q-4 0 -11 -3l3 -67q-2 -8 -3 -11q-5 -11 -16 -11
q-9 0 -21 8t-30 30q-6 7 -21 26q-2 3 -5 6q-8 9 -8 19q0 24 47 37t108 13q52 0 74.5 -10.5t67.5 -59.5q15 -16 41 -47v-47z" />
    <glyph glyph-name="braceleft" unicode="{" horiz-adv-x="213" 
d="M302 192q-16 -13 -27 -19q-36 -20 -69 -20q-63 0 -98 37t-35 93v161h-73v38h225v-38h-102v-170q0 -42 23.5 -63.5t58.5 -21.5q34 0 69 33q11 11 28 33v-63z" />
    <glyph glyph-name="bar" unicode="|" horiz-adv-x="217" 
d="M306 204l-236 -204l-36 34l166 128q-72 0 -105 50q-22 34 -22 76v156h-73v38h229v-38h-106v-165q0 -44 25 -65q21 -18 55 -18t72 30q12 10 31 31v-53z" />
    <glyph glyph-name="braceright" unicode="}" horiz-adv-x="394" 
d="M463 284q-11 2 -18 3q-26 4 -41 4q-29 0 -56 -27q-9 -9 -21 -27v-237h-48v187q-19 -18 -41 -26t-49 -8q-58 0 -89 33.5t-31 87.5v170h-69v38h405v-38h-78v-150q14 12 23 18q28 18 52 18q25 0 50 -7q4 -1 11 -4v-35zM279 262v182h-161v-178q0 -41 18 -59t50 -18
q39 0 66 24.5t27 48.5z" />
    <glyph glyph-name="asciitilde" unicode="~" horiz-adv-x="394" 
d="M463 284q-11 2 -18 3q-26 4 -41 4q-29 0 -56 -27q-9 -9 -21 -27v-237h-48v187q-19 -18 -41 -26t-49 -8q-58 0 -89 33.5t-31 87.5v170h-69v38h405v-38h-78v-150q14 12 23 18q28 18 52 18q25 0 50 -7q4 -1 11 -4v-35zM166 7h-69v67h69v-67zM279 262v182h-161v-178
q0 -41 18 -59t50 -18q39 0 66 24.5t27 48.5z" />
    <glyph glyph-name="nonbreakingspace" unicode="&#xa0;" horiz-adv-x="500" 
 />
    <glyph glyph-name="exclamdown" unicode="&#xa1;" horiz-adv-x="390" 
d="M600 444h-273v-139q14 15 24 22q31 22 63 22q52 0 88 -34t36 -83q0 -46 -29 -94q-40 -66 -66 -75l-40 30q28 20 42 36q42 48 42 107q0 32 -18 53t-53 21q-32 0 -64 -39q-10 -13 -25 -39v-232h-48v187q-19 -18 -41 -26t-49 -8q-58 0 -89 33.5t-31 87.5v170h-69v38h600v-38
zM279 262v182h-161v-178q0 -41 18 -59t50 -18q39 0 66 24.5t27 48.5z" />
    <glyph glyph-name="cent" unicode="&#xa2;" horiz-adv-x="390" 
d="M600 444h-273v-139q14 15 24 22q31 22 63 22q52 0 88 -34t36 -83q0 -46 -29 -94q-40 -66 -66 -75l-40 30q28 20 42 36q42 48 42 107q0 32 -18 53t-53 21q-32 0 -64 -39q-10 -13 -25 -39v-232h-48v187q-19 -18 -41 -26t-49 -8q-58 0 -89 33.5t-31 87.5v170h-69v38h600v-38
zM166 7h-69v67h69v-67zM279 262v182h-161v-178q0 -41 18 -59t50 -18q39 0 66 24.5t27 48.5z" />
    <glyph glyph-name="sterling" unicode="&#xa3;" horiz-adv-x="390" 
d="M600 444h-273v-139q17 15 27 22q33 22 60 22q52 0 88 -34t36 -83q0 -46 -29 -94q-40 -66 -66 -75l-40 30q28 20 42 36q42 48 42 107q0 32 -18 53t-53 21q-32 0 -64 -39q-10 -13 -25 -39v-232h-48v187l-197 -155l-35 36l144 94q-8 -1 -13 -1q-22 0 -39 5q-26 8 -42.5 26
t-22 36.5t-5.5 45.5v170h-69v38h600v-38zM279 262v182h-161v-178q0 -41 19 -59q16 -15 49 -15q37 0 65 23t28 47z" />
    <glyph glyph-name="currency" unicode="&#xa4;" horiz-adv-x="217" 
d="M229 444h-229v38h229v-38zM305 144q-16 -14 -28 -21q-37 -22 -79 -22q-60 0 -103.5 37t-43.5 95q0 60 41 96.5t100 36.5q18 0 43 -6q4 -1 13 -4l9 -41q-11 4 -18 5q-25 6 -41 6q-32 0 -54 -12q-7 -4 -16 -12l165 -111l12 17v-64zM274 169l-166 110q-4 -6 -5 -11
q-6 -17 -6 -33q0 -44 30.5 -70.5t75.5 -26.5q25 0 50 15q8 5 21 16z" />
    <glyph glyph-name="yen" unicode="&#xa5;" horiz-adv-x="217" 
d="M229 444h-229v38h229v-38zM309 144l-223 -136l-30 36l138 64q-59 0 -101 38t-42 91q0 59 41 94t100 35q18 0 43 -6q4 -1 13 -4l9 -41q-11 4 -18 6q-22 6 -41 6q-40 0 -61 -16q-3 -2 -9 -9l168 -112l13 16v-62zM277 168l-169 111q-4 -7 -5 -11q-6 -17 -6 -33
q0 -46 29.5 -71.5t76.5 -25.5q22 0 50 15q9 5 24 15z" />
    <glyph glyph-name="brokenbar" unicode="&#xa6;" horiz-adv-x="277" 
d="M289 444h-39v38h39v-38zM368 220h-160v-69q1 -9 -1 -17.5t-18 -8.5q-15 0 -63 49t-48 65q0 10 9 16.5t15 6.5h58v152q0 20 -11 32t-37 12q-20 0 -31.5 -13.5t-11.5 -35.5q0 -21 9 -40q1 -3 5 -8h-43q-5 9 -7 15q-8 20 -8 32q0 43 26 64.5t65 21.5t65.5 -23.5t26.5 -59.5
v-149h160v-42z" />
    <glyph glyph-name="section" unicode="&#xa7;" horiz-adv-x="277" 
d="M289 444h-39v38h39v-38zM102 284q-7 0 -15.5 -7.5t-8.5 -13.5q0 -18 48 -68t63 -50q14 0 18 12q1 4 1 13v72h155v42h-155v127q0 36 -26.5 59.5t-65.5 23.5t-63 -19q-28 -23 -28 -67q0 -15 7 -32q2 -6 8 -15h43q-5 9 -7 14q-7 17 -7 34q0 22 11.5 35.5t31.5 13.5
q25 0 36.5 -12.5t11.5 -31.5v-130h-58zM363 143l-229 -147l-30 43l259 145v-41z" />
    <glyph glyph-name="dieresis" unicode="&#xa8;" horiz-adv-x="257" 
d="M344 236h-176v-67q1 -7 0 -10q-4 -11 -19 -11q-19 0 -60 43t-41 61q0 16 11 20t16 4h43v168h-118v38h268v-38h-100v-168h176v-40z" />
    <glyph glyph-name="ordfeminine" unicode="&#xaa;" horiz-adv-x="273" 
d="M357 145q-18 -14 -31 -21q-42 -22 -90 -22q-80 0 -125 54t-45 120q7 -2 16.5 -4.5t14.5 -2.5q37 0 58 17q25 21 25 63q0 30 -23 65q-7 12 -24 30h-133v38h285v-38h-93q13 -20 19 -32q19 -37 19 -65q0 -64 -54 -95q-18 -10 -55 -19q10 -32 20 -48q33 -48 95 -48
q51 0 91 36q13 12 30 36v-64z" />
    <glyph glyph-name="guillemotleft" unicode="&#xab;" horiz-adv-x="272" 
d="M359 165l-224 -163l-30 37l157 95q-9 -1 -25 -1q-77 0 -123 51q-51 56 -51 116q8 -2 18.5 -4.5t15.5 -2.5q37 0 57 13q26 17 26 58q0 29 -23 57q-7 9 -24 23h-133v38h284v-38h-92q11 -8 26 -38q12 -25 12 -45q0 -63 -54 -89q-18 -8 -55 -14q6 -18 12 -28q37 -62 103 -62
q51 0 91 22q29 16 32 25v-50z" />
    <glyph glyph-name="logicalnot" unicode="&#xac;" horiz-adv-x="460" 
d="M472 444h-79v-444h-48v119q-19 -19 -54.5 -34t-72.5 -15q-87 0 -131 80q-14 26 -26 80q12 -3 60 -3q32 0 51 9q27 13 27 45q0 30 -29 43t-73 13q-51 0 -118 -17q-55 -14 -64 -20v41q34 11 57 16q69 16 127 16q61 0 100 -18q48 -22 48 -69q0 -66 -65 -87q-21 -7 -66 -8
q10 -28 20 -42q32 -43 87 -43q43 0 87 34q14 11 35 35v269h-345v38h472v-38z" />
    <glyph glyph-name="registered" unicode="&#xae;" horiz-adv-x="356" 
d="M382 444h-93v-123q0 -23 -11 -43t-39 -33.5t-54 -13.5q-15 0 -30 5l67 -96q22 -27 60 -69q13 -14 35 -37l-36 -34q-33 36 -70 81q-41 50 -71 92q-42 60 -71 110q-10 18 -24 43l38 28l38 -65q4 -9 20 -16t34 -7q31 0 47.5 16.5t16.5 43.5v118h-239v38h382v-38z" />
    <glyph glyph-name="macron" unicode="&#xaf;" horiz-adv-x="337" 
d="M514 444h-243v-115q16 10 26 14q34 15 61 15q45 0 77 -32t32 -78q0 -51 -39 -106q-13 -18 -40 -45l-34 30q13 11 20 19q45 51 45 107q0 29 -20 49t-50 20q-22 0 -49.5 -15t-30.5 -21q-1 -6 -3 -10q-12 -24 -45 -38q-11 -4 -25 -4.5t-26 -0.5q15 -22 23 -35q23 -34 43 -61
t76 -87q8 -9 22 -24l-39 -29q-23 21 -60 65q-40 48 -82 111q-50 73 -77 121q-9 16 -18 35l39 22l36 -60q3 -6 18.5 -14t30.5 -8q27 0 35 18q5 11 5 39v118h-222v38h514v-38z" />
    <glyph glyph-name="degree" unicode="&#xb0;" horiz-adv-x="346" 
d="M604 444h-325v-118h113q9 5 21 12t35 7q48 0 81.5 -46t33.5 -103q0 -63 -26 -123q-8 -20 -26 -47l-41 22q19 19 37 63.5t18 82.5q0 44 -23 72.5t-58 28.5q-29 0 -44 -16t-15 -42q0 -32 20 -52q11 -11 22 -15l-25 -38q-23 14 -40 43t-17 61q0 19 5 36q6 15 6 16h-85
q-2 -8 -4 -12q-14 -28 -49 -39q-13 -4 -27 -4h-21q15 -22 23 -35q23 -34 43 -61t76 -87q8 -9 22 -24l-39 -29q-23 21 -60 65q-40 48 -82 111q-50 73 -77 121q-9 16 -18 35l39 22l36 -60q3 -6 18.5 -14t30.5 -8q29 0 40 17q8 13 8 40v118h-230v38h604v-38z" />
    <glyph glyph-name="plusminus" unicode="&#xb1;" horiz-adv-x="361" 
d="M373 444h-373v38h373v-38zM448 284q-17 -3 -27 -6q-31 -11 -54.5 -35t-38.5 -54q-11 -23 -13 -34l-41 22l14 35q3 9 12 23q1 2 5 7q-7 17 -41 36q-28 15 -56 15q-40 0 -65 -24t-25 -66q0 -66 79 -122q26 -18 79 -42l-23 -42q-24 0 -93 54q-90 70 -90 155q0 61 37.5 94.5
t100.5 33.5q36 0 72 -19t51 -41q10 8 16 12q22 17 30 21q21 10 57 16q5 1 14 3v-42z" />
    <glyph glyph-name="twosuperior" unicode="&#xb2;" horiz-adv-x="463" 
d="M475 444h-475v38h475v-38zM514 221q0 -59 -29 -98q-33 -44 -92 -44q-83 0 -109 81q-10 -39 -40 -62.5t-69 -23.5q-54 0 -87.5 43t-33.5 102q0 54 35.5 94.5t88.5 40.5q37 0 64.5 -19t43.5 -54q8 23 45 52q31 24 61 24q44 0 76 -25q46 -36 46 -111zM462 219q0 44 -15 69
q-18 30 -57 30t-64 -47q-20 -38 -18 -52q-6 -30 25 -71q24 -32 64 -32q37 0 53 34q12 25 12 69zM264 219q-8 33 -16 49q-25 49 -71 49q-34 0 -52.5 -28t-18.5 -71q0 -49 17 -77t54 -28q44 0 70 53q8 17 17 53z" />
    <glyph glyph-name="threesuperior" unicode="&#xb3;" horiz-adv-x="493" 
d="M559 444h-132v-97q29 -14 43 -28q44 -43 44 -113q0 -61 -29 -102q-33 -46 -92 -46q-83 0 -109 80q-12 -39 -40.5 -62t-68.5 -23q-54 0 -87.5 45.5t-33.5 105.5q0 57 35 99t89 42q76 0 108 -74q8 15 13 23q16 26 31.5 35.5t25 13.5t22.5 4v97h-378v38h559v-38zM462 204
q0 44 -15 71q-18 33 -57 33q-31 0 -53 -31q-34 -47 -29 -73q-6 -32 25 -75q25 -34 64 -34q37 0 53 35q12 27 12 74zM264 204q-8 34 -16 51q-26 52 -71 52q-34 0 -52.5 -30t-18.5 -74q0 -49 17 -80t54 -31q44 0 70 56q8 18 17 56z" />
    <glyph glyph-name="acute" unicode="&#xb4;" horiz-adv-x="218" 
d="M230 444h-230v38h230v-38zM306 148q-16 -16 -45 -28t-58 -12q-59 0 -99.5 36t-40.5 96q0 57 35 93t89 36q25 0 51 -8q4 -1 12 -5l10 -39q-11 5 -18 7q-23 7 -50 7q-80 0 -80 -95q0 -37 24 -64t63 -27q36 0 75 29q13 9 32 29v-55z" />
    <glyph glyph-name="mu" unicode="&#xb5;" horiz-adv-x="218" 
d="M230 444h-230v38h230v-38zM306 148q1 -2 -113 -76q-38 -24 -116 -74l-31 37l150 77q-51 0 -90 33q-43 37 -43 95q0 57 35 93t89 36q25 0 51 -8q4 -1 12 -5l10 -39q-11 5 -18 7q-23 7 -50 7q-80 0 -80 -95q0 -37 24 -64t63 -27q36 0 75 26q13 8 32 27v-50z" />
    <glyph glyph-name="cedilla" unicode="&#xb8;" horiz-adv-x="339" 
d="M351 444h-30v38h30v-38zM422 232l-240 -181l-29 39l173 122q-13 8 -21 12q-26 15 -41 22t-43 21q-8 4 -23 12l-68 -47l-74 -50l-30 38l71 43q12 7 48 31q5 3 13 9q-21 15 -31 25q-32 33 -32 72q0 37 26 62t65 25q40 0 71 -24.5t31 -62.5q0 -33 -27 -66q-9 -11 -28 -27
q14 -9 22 -13q27 -16 40 -22l69 -35l58 44v-49zM237 397q0 23 -13.5 39.5t-36.5 16.5q-22 0 -35.5 -15.5t-13.5 -37.5q0 -29 25 -51q20 -18 29 -18q15 11 22 18q23 24 23 48z" />
    <glyph glyph-name="onesuperior" unicode="&#xb9;" horiz-adv-x="220" 
d="M306 173q-23 -15 -47 -24t-49 -9q-55 0 -95 34t-40 86v184h-75v38h232v-38h-99l173 -185v-86zM300 215l-175 189v-146q0 -37 24.5 -58.5t62.5 -21.5q33 0 62 16q21 12 26 21z" />
    <glyph glyph-name="ordmasculine" unicode="&#xba;" horiz-adv-x="351" 
d="M440 242h-137l-32 39h169v-39zM363 444h-103v-123v-13q0 -32 -8 -49q-14 -29 -49 -36q-14 -3 -21 -3q-10 0 -24 5q13 -20 20 -32q20 -30 39 -58q17 -22 68 -79q7 -8 20 -22l-39 -34q-28 35 -63 80q-44 57 -68 93q-40 59 -65 106l-19 38l39 24l28 -52q8 -18 18.5 -24.5
t33.5 -6.5q24 0 34 13q7 9 7 30q-1 17 -1 25v118h-210v38h363v-38z" />
    <glyph glyph-name="guillemotright" unicode="&#xbb;" horiz-adv-x="390" 
d="M477 222l-145 -132l-35 35l156 125q-20 21 -35 31q-47 31 -110 31h-46q0 -22 -3 -33q-10 -36 -43 -49q-8 -4 -18 -5t-22 -1h-11t-7 1q13 -20 20 -32q20 -30 39 -58q17 -22 68 -79q7 -8 20 -22l-39 -34q-28 35 -63 80q-44 57 -68 93q-40 59 -65 106l-19 38l39 24l28 -52
q8 -18 18.5 -24.5t33.5 -6.5q27 0 35 22q5 14 5 46v118h-210v38h402v-38h-142v-93q8 1 20 1q21 -1 35 -1q69 0 122 -38q17 -12 40 -39v-52z" />
    <glyph glyph-name="onequarter" unicode="&#xbc;" horiz-adv-x="416" 
d="M463 206h-250q-37 0 -64.5 -25.5t-27.5 -62.5q0 -62 105.5 -90t112.5 -15l-18 -37q-33 -33 -172 36q-79 40 -79 109q0 24 15 47.5t40 43.5q-21 21 -31 35q-31 42 -31 75q0 20 12.5 30.5t30.5 10.5h196v81h-302v38h428v-38h-77v-122h-217q-11 0 -17 -4.5t-6 -16.5t11 -30
q4 -6 15.5 -17t13.5 -12h312v-36z" />
    <glyph glyph-name="onehalf" unicode="&#xbd;" horiz-adv-x="417" 
d="M451 444h-100v-122h-221q-17 0 -17 -13q0 -7 4.5 -16.5t9.5 -17.5t21 -28l12 -15q11 4 27 7q29 6 55 6q65 0 102.5 -23.5t37.5 -72.5q0 -32 -23 -56q-7 -8 -23 -18l-36 26q11 6 16 11q16 16 16 39q0 32 -25 44.5t-68 12.5q-57 0 -87.5 -25.5t-30.5 -64.5
q0 -62 101.5 -95.5t109.5 -21.5l-15 -32q-21 -13 -125 24q-122 43 -122 128q0 40 27 69q9 9 28 22q-21 22 -31 36q-31 43 -31 74q0 20 12.5 30.5t30.5 10.5h196v81h-302v38h451v-38z" />
    <glyph glyph-name="threequarters" unicode="&#xbe;" horiz-adv-x="432" 
d="M465 444h-98v-122h-239q-19 0 -19 -10q0 -11 19 -38q11 -15 20 -25.5t15 -12.5q22 7 49 13t45 6q74 0 112 -20q45 -24 45 -75q0 -32 -33 -44q-14 -5 -54.5 -9t-52.5 -9q-22 -9 -22 -32q0 -25 24.5 -37t52.5 -12q22 0 50 11q9 3 23 11l20 -42q-18 -9 -40.5 -13.5
t-47.5 -4.5q-47 0 -83 19q-47 25 -47 71q0 40 27.5 61t90.5 21q15 -1 22 -1q13 0 20 3.5t7 14.5q0 29 -39 40q-25 7 -75 7q-60 0 -102.5 -29t-42.5 -75q0 -53 38 -102q55 -72 86 -72l-32 -34q-19 0 -71 56q-67 72 -67 152q0 33 15 57q11 18 42 45q-20 22 -30 36
q-30 42 -30 73q0 20 12.5 30.5t30.5 10.5h212v81h-318v38h465v-38z" />
    <glyph glyph-name="questiondown" unicode="&#xbf;" horiz-adv-x="433" 
d="M467 444h-99v-122h-240q-18 0 -18 -13q0 -10 15 -33l30 -37q16 5 48 10.5t50 5.5q64 0 105 -27q49 -32 49 -95q0 -51 -31 -96q-10 -14 -31 -34l-37 26q18 17 27 29q28 37 28 69q0 35 -12 50q-8 6 -15 12l-118 -123l-40 29l122 113l-18 6q-18 3 -41 3q-51 0 -90.5 -30.5
t-39.5 -79.5q0 -54 37 -99q51 -62 85 -62l-30 -31q-37 0 -96 81q-43 59 -43 125q0 37 28 68q9 10 29 24q-20 22 -29 36q-29 42 -29 73q0 20 12.5 30.5t30.5 10.5h213v81h-319v38h467v-38z" />
    <glyph glyph-name="Agrave" unicode="&#xc0;" horiz-adv-x="642" 
d="M653 444h-79v-444h-49v95h-151v-52q0 -7 -1 -10q-5 -11 -19 -11q-15 0 -53 37t-38 52q0 14 16 18q2 0 9 1h34v78h-131q-30 0 -48.5 -25t-18.5 -59q0 -54 80 -102q69 -42 84 -38l-35 -35q-22 0 -90 48q-86 61 -86 126q0 32 12 54q9 16 34 40q-20 21 -30 34q-30 40 -30 71
q0 20 12.5 30.5t30.5 10.5h196v81h-302v38h653v-38zM525 130v314h-174v-122h-223q-16 0 -16 -12q0 -11 16 -34q5 -8 15 -17.5t14 -10.5h217v-118h151z" />
    <glyph glyph-name="Aacute" unicode="&#xc1;" horiz-adv-x="625" 
d="M637 444h-79v-444h-49v107q-12 -13 -21 -20q-56 -45 -117 -45q-60 0 -108 38q-16 12 -36 38q2 0 8 -1t11 -1q27 0 43 9q24 13 24 45q0 27 -17 37q-5 3 -17 5h-111q-18 -9 -27 -17q-27 -26 -27 -71q0 -54 85 -102q73 -42 89 -38l-35 -35q-23 0 -94 47q-91 61 -91 127
q0 44 23 76q7 10 23 23q-17 20 -25 32q-26 39 -26 68q0 20 12.5 30.5t30.5 10.5h196v81h-302v38h637v-38zM509 175v269h-158v-122h-223q-17 0 -17 -12q0 -10 2 -15t11 -19q4 -9 12 -17.5t13 -10.5h144q24 -5 35 -11q36 -20 36 -60q0 -34 -22 -60q-7 -8 -23 -20q9 -6 15 -8
q21 -9 40 -9q53 0 99 47q15 15 36 48z" />
    <glyph glyph-name="Acircumflex" unicode="&#xc2;" 
d="M35 -197l-21 -21l-157 117l38 40z" />
    <glyph glyph-name="Atilde" unicode="&#xc3;" 
d="M-177 -69h-68v55h68v-55z" />
    <glyph glyph-name="Adieresis" unicode="&#xc4;" 
d="M-138 674h-54v50h54v-50zM-17 688q-7 -42 -19 -62q-37 -62 -129 -62q-88 0 -127 62q-13 20 -22 62h48q1 -18 4 -28q21 -62 97 -62q66 0 89 45q7 15 10 45h49z" />
    <glyph glyph-name="Aring" unicode="&#xc5;" 
d="M-1 -132h-59l-111 144l-119 -144h-70l163 168h53z" />
    <glyph glyph-name="AE" unicode="&#xc6;" 
d="M-60 570h-68v68h68v-68z" />
    <glyph glyph-name="Ccedilla" unicode="&#xc7;" 
d="M-22 661q-8 4 -13 5q-17 5 -37 5q-27 0 -44 -16t-17 -48q0 -39 32 -88q10 -16 32 -41h-38q-9 3 -37 48q-35 55 -35 98q0 46 33 68q26 17 69 17q22 0 40 -5q6 -1 15 -6v-37z" />
    <glyph glyph-name="Egrave" unicode="&#xc8;" 
d="M-22 661q-8 4 -13 5q-17 5 -37 5q-27 0 -44 -16t-17 -48q0 -39 32 -88q10 -16 32 -41h-37q-8 3 -37 48q-36 57 -36 98q0 46 33 68q26 17 69 17q22 0 40 -5q6 -1 15 -6v-37zM-24 562h-56v51h56v-51z" />
    <glyph glyph-name="Eacute" unicode="&#xc9;" horiz-adv-x="199" 
d="M210 444h-78v-444h-49v444h-83v38h210v-38z" />
    <glyph glyph-name="Edieresis" unicode="&#xcb;" horiz-adv-x="199" 
d="M534 614h-67v65h67v-65zM539 478h-59q-21 22 -41 45q-51 52 -100 84q-70 46 -127 46q-38 0 -68 -28t-30 -76q0 -22 8 -47q2 -8 8 -20h80v-38h-78v-444h-49v444h-83v38h87q-7 14 -10 23q-10 27 -10 50q0 68 41 102.5t109 34.5q70 0 153 -55q61 -41 121 -103z" />
    <glyph glyph-name="Igrave" unicode="&#xcc;" horiz-adv-x="199" 
d="M561 662q-8 4 -13 5q-17 5 -36 5q-29 0 -46 -15.5t-17 -48.5q0 -44 19 -90q6 -15 19 -37h-42q-16 22 -31 44q-40 50 -85 83q-62 45 -121 45q-43 0 -68.5 -27.5t-25.5 -76.5q0 -22 8 -47q2 -8 8 -20h80v-38h-78v-444h-49v444h-83v38h87q-7 14 -10 23q-10 27 -10 50
q0 68 39.5 102.5t106.5 34.5q80 0 157 -72q25 -24 61 -73q-8 15 -12 24q-12 30 -12 56q0 44 28.5 63.5t71.5 19.5q24 0 45 -8q3 -1 9 -5v-35z" />
    <glyph glyph-name="Iacute" unicode="&#xcd;" horiz-adv-x="199" 
d="M555 563h-55v51h55v-51zM561 662q-8 4 -13 5q-17 5 -36 5q-29 0 -46 -15.5t-17 -48.5q0 -44 19 -90q6 -15 19 -37h-42q-16 22 -31 44q-40 50 -85 83q-62 45 -121 45q-43 0 -68.5 -27.5t-25.5 -76.5q0 -22 8 -47q2 -8 8 -20h80v-38h-78v-444h-49v444h-83v38h87
q-7 14 -10 23q-10 27 -10 50q0 68 39.5 102.5t106.5 34.5q80 0 157 -72q25 -24 61 -73q-8 15 -12 24q-12 30 -12 56q0 44 28.5 63.5t71.5 19.5q24 0 45 -8q3 -1 9 -5v-35z" />
    <glyph glyph-name="Icircumflex" unicode="&#xce;" horiz-adv-x="199" 
d="M773 478h-53q-32 24 -63 48q-82 57 -169 91q-123 49 -240 49q-56 0 -95 -29t-39 -77q0 -26 12 -63q2 -6 6 -15h78v-38h-78v-444h-49v444h-83v38h86q-8 16 -11 26q-11 31 -11 59q0 67 49.5 103.5t139.5 36.5q130 0 264 -59q96 -42 186 -110z" />
    <glyph glyph-name="Idieresis" unicode="&#xcf;" horiz-adv-x="199" 
d="M758 629h-67v65h67v-65zM777 478h-53l-64 48q-85 57 -170 91q-124 49 -242 49q-56 0 -95 -29t-39 -77q0 -26 12 -63q2 -6 6 -15h78v-38h-78v-444h-49v444h-83v38h86q-8 16 -11 26q-11 31 -11 59q0 67 49.5 103.5t139.5 36.5q130 0 265 -59q98 -43 188 -110q35 -30 71 -60
z" />
    <glyph glyph-name="Eth" unicode="&#xd0;" horiz-adv-x="199" 
d="M823 663q-8 3 -13 4q-20 5 -36 5q-27 0 -44.5 -16.5t-17.5 -48.5q0 -41 24 -89q8 -16 25 -40h-41q-32 24 -63 48q-82 57 -169 91q-123 49 -240 49q-58 0 -96 -29t-38 -77q0 -21 8 -51q2 -10 9 -27h79v-38h-78v-444h-49v444h-83v38h87q-6 15 -9 25q-10 34 -10 60
q0 68 48 104t137 36q104 0 220 -43q84 -31 162 -80q61 -38 65 -46q-10 17 -14 28q-14 33 -14 60q0 47 30 67q24 16 67 16q18 0 37 -4q6 -1 17 -5v-37z" />
    <glyph glyph-name="Ntilde" unicode="&#xd1;" horiz-adv-x="199" 
d="M821 562h-55v51h55v-51zM823 663q-8 3 -13 4q-20 5 -36 5q-27 0 -44.5 -16.5t-17.5 -48.5q0 -41 24 -89q8 -16 25 -40h-41q-32 24 -63 48q-82 57 -169 91q-123 49 -240 49q-58 0 -96 -29t-38 -77q0 -21 6.5 -48.5t9.5 -29.5h80v-38h-78v-444h-49v444h-83v38h86
q-6 15 -9 25q-9 31 -9 60q0 68 48 104t137 36q104 0 220 -43q84 -31 162 -80q61 -38 65 -46q-10 17 -14 28q-14 33 -14 60q0 47 30 67q24 16 67 16q18 0 37 -4q6 -1 17 -5v-37z" />
    <glyph glyph-name="Ograve" unicode="&#xd2;" horiz-adv-x="199" 
d="M210 444h-78v-444h-49v444h-83v38h83q-18 55 -34 82q-48 82 -118 82q-33 0 -49 -20t-16 -55q0 -33 15 -66q5 -11 16 -27h-45q-11 18 -16 29q-17 36 -17 64q0 55 30 83t81 28q96 0 156 -100q20 -33 41 -100h83v-38z" />
    <glyph glyph-name="Oacute" unicode="&#xd3;" horiz-adv-x="199" 
d="M178 610h-65v64h65v-64zM210 444h-78v-444h-49v444h-83v38h83q-18 55 -34 82q-48 82 -118 82q-33 0 -49 -20t-16 -55q0 -33 14 -66q4 -11 15 -27h-45q-10 18 -15 29q-16 37 -16 64q0 55 30 83t81 28q96 0 156 -100q20 -33 41 -100h83v-38z" />
    <glyph glyph-name="Ocircumflex" unicode="&#xd4;" horiz-adv-x="199" 
d="M210 444h-78v-444h-49v444h-83v38h74q-30 54 -50 80q-61 81 -110 81q-32 0 -48 -22t-16 -52q0 -35 14 -66q4 -10 15 -25h-42q-8 11 -18 32q-16 35 -16 64q0 46 24.5 77t75.5 31q59 0 101 -38q14 -12 31 -39q-5 15 -5 32q0 34 24.5 53t60.5 19q20 0 30.5 -1.5t24.5 -7.5
v-39q-8 4 -13 6q-17 6 -37 6q-53 0 -53 -68q0 -26 16.5 -57.5t34.5 -65.5h92v-38z" />
    <glyph glyph-name="Otilde" unicode="&#xd5;" horiz-adv-x="199" 
d="M181 562h-56v51h56v-51zM210 444h-78v-444h-49v444h-83v38h74q-30 54 -50 80q-61 81 -110 81q-32 0 -48 -22t-16 -52q0 -35 14 -66q4 -10 15 -25h-42q-8 11 -18 32q-16 35 -16 64q0 46 24.5 77t75.5 31q59 0 101 -38q14 -12 31 -39q-5 15 -5 32q0 34 24.5 53t60.5 19
q20 0 30.5 -1.5t24.5 -7.5v-39q-8 4 -13 6q-17 6 -37 6q-53 0 -53 -68q0 -26 16.5 -57.5t34.5 -65.5h92v-38z" />
    <glyph glyph-name="Odieresis" unicode="&#xd6;" 
d="M12 -99q0 -51 -38 -83.5t-99 -32.5q-75 0 -147 48q-24 16 -57 49l31 40q27 -32 46 -48q59 -49 121 -49q38 0 65 21t27 57q0 25 -16.5 41.5t-41.5 16.5q-23 0 -43 -19q-6 -6 -15 -19l-38 34q15 15 27 23q35 23 74 23q43 0 73.5 -29.5t30.5 -72.5z" />
    <glyph glyph-name="multiply" unicode="&#xd7;" 
d="M-177 -45h-68v56h68v-56zM-3 -149q0 -49 -51 -72q-41 -19 -105 -19q-76 0 -147 44q-23 14 -55 44l25 43q28 -32 49 -48q64 -49 131 -49q57 0 80.5 15.5t23.5 41.5q0 22 -18 31.5t-47 9.5q-25 0 -50 -17q-8 -5 -21 -18l-35 34q19 13 32 19q40 20 74 20q50 0 82 -20t32 -59
z" />
    <glyph glyph-name="Oslash" unicode="&#xd8;" 
d="M0 -77l-33 -21q4 -4 6 -7q13 -19 13 -42q0 -49 -51 -72q-41 -19 -106 -19q-76 0 -147 33q-23 11 -56 33l26 45q29 -26 50 -39q63 -39 130 -39q43 0 69 11q35 15 35 47q0 22 -18.5 31.5t-45.5 9.5q-23 0 -50 -18q-9 -6 -22 -19l-35 34q19 13 32 19q41 20 75 20q19 0 47 -6
q9 -2 24 -6l-108 94l-134 -110l-38 32l146 102h53z" />
    <glyph glyph-name="Ugrave" unicode="&#xd9;" 
d="M-36 -180q0 -50 -50 -75q-42 -21 -106 -21q-76 0 -143 43q-22 14 -51 43l26 41q22 -36 69.5 -64.5t101.5 -28.5q41 0 69 13q35 16 35 49q0 22 -19.5 35t-46.5 13q-17 0 -45 -18q-9 -6 -25 -18l-36 35q20 12 33 18q40 18 73 18q51 0 83 -21.5t32 -61.5z" />
    <glyph glyph-name="Uacute" unicode="&#xda;" 
d="M49 -208l-41 -22q7 21 -23 96q-38 95 -110 95q-27 0 -45.5 -18.5t-18.5 -44.5t17.5 -42.5t43.5 -16.5q14 0 31 8q5 2 14 8l24 -38q-12 -6 -20 -8q-27 -9 -50 -9q-46 0 -77 28t-31 72q0 43 32.5 73.5t78.5 30.5q92 0 143 -106q16 -35 32 -106z" />
    <glyph glyph-name="Ucircumflex" unicode="&#xdb;" 
d="M-177 -45h-68v56h68v-56zM48 -205l-28 -31q-32 41 -54 61q-68 61 -135 61q-28 0 -46 -10t-18 -36q0 -21 15 -30.5t37 -9.5q19 0 45 12q4 2 11 6l28 -38q-7 -3 -16 -6q-36 -12 -64 -12q-42 0 -70 21q-31 24 -31 64q0 39 31.5 57.5t73.5 18.5q84 0 161 -64q25 -21 60 -64z
" />
    <glyph glyph-name="Udieresis" unicode="&#xdc;" 
d="M38 -205l-28 -31q-28 39 -47 58q-59 58 -116 58q-30 0 -47 -9.5t-17 -36.5q0 -18 14.5 -26t36.5 -8q14 0 26 6.5t17 11.5l27 -38q-11 -6 -18 -9q-23 -9 -47 -9q-44 0 -71 18q-31 21 -31 61q0 36 32.5 56t74.5 20q31 0 67 -13q11 -4 29 -13l-113 121l-138 -120l-41 34
l153 110h53l138 -131l-39 -22q41 -27 72 -68q5 -7 13 -20z" />
    <glyph glyph-name="Yacute" unicode="&#xdd;" 
d="M14 -245l-29 -31q-26 44 -45 66q-59 66 -125 66q-32 0 -55 -10.5t-23 -38.5q0 -21 15 -31.5t37 -10.5q19 0 38.5 7.5t23.5 11.5l27 -38q-14 -5 -29 -10q-31 -9 -56 -9q-42 0 -71.5 23t-29.5 64q0 42 41 63q32 16 76 16q82 0 152 -69q23 -23 53 -69z" />
    <glyph glyph-name="Thorn" unicode="&#xde;" 
d="M-8 -177q-17 -10 -29 -15q-39 -16 -77 -16q-48 0 -84 27q-41 31 -41 80q0 45 33 73t77 28h62v-37h-53q-31 0 -51 -15.5t-20 -44.5q0 -31 25 -51t59 -20q28 0 53 13q21 14 22 15z" />
    <glyph glyph-name="germandbls" unicode="&#xdf;" 
d="M17 -211q-14 -8 -23 -11q-30 -12 -57 -12q-39 0 -69 19q-36 23 -36 60q0 18 13 36q4 5 13 14q-15 6 -22 11q-23 18 -23 47q0 43 56 58q18 4 56 6l11 -34q-2 7 -39 -2t-37 -33q0 -17 14 -27q4 -3 15 -7q5 2 8 2q21 5 34 5q11 0 20 -1t17 -3l16 -36q-10 2 -15 2
q-22 3 -28 3q-23 0 -41.5 -9.5t-18.5 -32.5q0 -42 53 -42q18 0 41 12q7 4 20 12z" />
    <glyph glyph-name="agrave" unicode="&#xe0;" 
d="M-70 478h-36q-4 18 -9 27q-15 29 -42 38.5t-66 13t-69.5 18.5t-41 37t-10.5 50q0 20 3 33q0 2 3 7l25 -2q-1 -8 -1 -13q0 -27 8 -46q13 -30 41 -36q63 -8 89.5 -12t62.5 -28q21 -14 34 -52q4 -12 9 -35z" />
    <glyph glyph-name="aacute" unicode="&#xe1;" 
d="M-29 632h-64v60h64v-60zM-70 478h-36q-4 18 -9 27q-15 29 -42 38.5t-66 13t-69.5 18.5t-41 37t-10.5 50q0 20 3 33q0 2 3 7l25 -2q-1 -8 -1 -13q0 -27 8 -46q13 -30 41 -36q63 -8 89.5 -12t62.5 -28q21 -14 34 -52q4 -12 9 -35z" />
    <glyph glyph-name="acircumflex" unicode="&#xe2;" 
d="M-21 664q-8 3 -13 4q-20 5 -37 5q-28 0 -44.5 -13.5t-16.5 -45.5q0 -17 42 -81q20 -30 20 -55h-35q-4 18 -9 27q-16 29 -43 38.5t-66 13t-69.5 18.5t-41 37t-10.5 50q0 20 3 33q0 2 3 7l25 -2q-1 -10 -1 -16q0 -35 13.5 -54t35.5 -25l70.5 -13.5t41.5 -16.5q-7 9 -10 15
q-11 21 -11 38q0 43 31 64q26 17 67 17q11 0 23 -0.5t32 -8.5v-36z" />
    <glyph glyph-name="atilde" unicode="&#xe3;" 
d="M-21 573h-56v52h56v-52zM-21 664q-8 3 -13 4q-20 5 -37 5q-28 0 -44.5 -13.5t-16.5 -45.5q0 -23 28.5 -61.5t33.5 -74.5h-36q-4 18 -9 27q-15 29 -42 38.5t-66 13t-69.5 18.5t-41 37t-10.5 50q0 20 3 33q0 2 3 7l25 -2q-1 -10 -1 -16q0 -35 13.5 -54t35.5 -25l70.5 -13.5
t41.5 -16.5q-7 9 -10 15q-11 21 -11 38q0 43 31 64q26 17 67 17q11 0 23 -0.5t32 -8.5v-36z" />
    <glyph glyph-name="adieresis" unicode="&#xe4;" 
d="M-65 478h-32l-203 203l41 33z" />
    <glyph glyph-name="aring" unicode="&#xe5;" 
d="M-29 626h-64v60h64v-60zM-65 478h-32l-203 203l41 33z" />
    <glyph glyph-name="ae" unicode="&#xe6;" 
d="M-18 662q-9 4 -14 5q-20 6 -37 6q-26 0 -41 -16t-15 -50q0 -32 29 -83q9 -17 30 -46h-36l-195 203l41 33l105 -134q-4 10 -5 16q-6 22 -6 36q0 44 23.5 60.5t65.5 16.5q20 0 30 -1.5t25 -7.5v-38z" />
    <glyph glyph-name="ccedilla" unicode="&#xe7;" 
d="M-18 662q-9 4 -14 5q-20 6 -37 6q-26 0 -41 -16t-15 -50q0 -31 30 -83q10 -17 30 -46h-36l-196 203l41 33l105 -134q-4 10 -5 16q-6 22 -6 36q0 44 23.5 60.5t65.5 16.5q20 0 30 -1.5t25 -7.5v-38zM-15 563h-56v51h56v-51z" />
    <glyph glyph-name="egrave" unicode="&#xe8;" 
d="M-70 478h-28l-173 210l48 28zM-156 478h-32l-154 101l29 41z" />
    <glyph glyph-name="eacute" unicode="&#xe9;" 
d="M-25 626h-69v68h69v-68zM-70 478h-28l-173 210l48 28zM-155 478h-32l-155 101l29 41z" />
    <glyph glyph-name="ecircumflex" unicode="&#xea;" 
d="M-18 659q-8 4 -13 6q-17 6 -36 6q-26 0 -41.5 -15t-15.5 -49q0 -37 27 -86q9 -16 28 -43h-29l-179 210l46 27l83 -125q-3 9 -4 15q-4 18 -4 36q0 36 22.5 53t62.5 17q21 0 39 -7q6 -2 14 -8v-37zM-155 478h-33l-152 99l37 44z" />
    <glyph glyph-name="edieresis" unicode="&#xeb;" 
d="M-18 659q-8 4 -13 6q-17 6 -36 6q-26 0 -41.5 -15t-15.5 -49q0 -37 27 -86q9 -16 28 -43h-29l-179 210l46 27l83 -125q-3 9 -4 15q-4 18 -4 36q0 36 22.5 53t62.5 17q21 0 39 -7q6 -2 14 -8v-37zM-18 563h-56v51h56v-51zM-155 478h-33l-152 99l37 44z" />
    <glyph glyph-name="igrave" unicode="&#xec;" 
d="M-17 684q-7 -42 -19 -62q-37 -62 -129 -62q-88 0 -127 62q-13 20 -22 62h48q4 -30 12 -44q25 -45 89 -45q66 0 89 44q7 14 10 45h49z" />
    <glyph glyph-name="iacute" unicode="&#xed;" 
d="M-107 688q-1 -44 -8 -66q-23 -67 -97 -67q-76 0 -101 66q-8 22 -10 67h41q-1 -9 -1 -15q0 -31 11 -50q18 -31 60 -31q36 0 51 28q10 19 10 50v10.5t-1 7.5h45zM-14 582h-64v58h64v-58z" />
    <glyph glyph-name="icircumflex" unicode="&#xee;" 
d="M-9 661q-8 3 -13 4q-20 5 -37 5q-27 0 -44 -16t-17 -47q0 -42 25 -90q8 -16 25 -39h-36q-6 2 -24 34q-23 40 -27 76q-9 -10 -17 -15q-25 -15 -62 -15q-74 0 -98 57q-7 19 -9 58h44q-1 -27 3 -40q13 -41 60 -41q37 0 52 25q10 17 10 43v8.5t-1 4.5h29q8 13 15 19
q24 19 67 19q29 0 55 -11v-39z" />
    <glyph glyph-name="idieresis" unicode="&#xef;" 
d="M-12 661q-7 3 -12 4q-18 5 -35 5q-27 0 -44 -16t-17 -47q0 -42 25 -90q8 -16 25 -39h-36q-6 2 -24 34q-23 40 -27 76q-9 -10 -17 -15q-25 -15 -62 -15q-74 0 -98 57q-7 19 -9 58h44q-1 -27 3 -40q13 -41 60 -41q37 0 52 25q10 17 10 43v8.5t-1 4.5h29q8 13 15 19
q24 19 67 19q18 0 36 -5q6 -1 16 -6v-39zM-16 562h-56v51h56v-51z" />
    <glyph glyph-name="eth" unicode="&#xf0;" horiz-adv-x="213" 
d="M-9 464l4 -2l-3 -4l-3 3z" />
    <glyph glyph-name="ntilde" unicode="&#xf1;" horiz-adv-x="212" 
d="M-9 464l4 -2l-3 -4l-3 3z" />
    <glyph glyph-name="ograve" unicode="&#xf2;" horiz-adv-x="192" 
d="M-9 464l4 -2l-3 -4l-3 3z" />
    <glyph glyph-name="oacute" unicode="&#xf3;" horiz-adv-x="56" 
d="M-9 464l4 -2l-3 -4l-3 3z" />
    <glyph glyph-name="ocircumflex" unicode="&#xf4;" horiz-adv-x="50" 
d="M-9 464l4 -2l-3 -4l-3 3z" />
    <glyph glyph-name="otilde" unicode="&#xf5;" horiz-adv-x="33" 
d="M-9 464l4 -2l-3 -4l-3 3z" />
    <glyph glyph-name="odieresis" unicode="&#xf6;" horiz-adv-x="35" 
d="M-10 465l5 -1l-2 -5l-4 1z" />
    <glyph glyph-name="divide" unicode="&#xf7;" horiz-adv-x="21" 
d="M-9 464l4 -2l-3 -4l-3 3z" />
    <glyph glyph-name="oslash" unicode="&#xf8;" horiz-adv-x="34" 
d="M-9 464l4 -2l-3 -4l-3 3z" />
    <glyph glyph-name="ugrave" unicode="&#xf9;" horiz-adv-x="26" 
d="M-9 464l4 -2l-3 -4l-3 3z" />
    <glyph glyph-name="uacute" unicode="&#xfa;" horiz-adv-x="13" 
d="M-9 464l4 -2l-3 -4l-3 3z" />
    <glyph glyph-name="ucircumflex" unicode="&#xfb;" horiz-adv-x="165" 
d="M-9 464l4 -2l-3 -4l-3 3z" />
    <glyph glyph-name="udieresis" unicode="&#xfc;" horiz-adv-x="248" 
d="M-9 464l4 -2l-3 -4l-3 3z" />
    <glyph glyph-name="yacute" unicode="&#xfd;" horiz-adv-x="54" 
d="M-9 464l4 -2l-3 -4l-3 3z" />
    <glyph glyph-name="thorn" unicode="&#xfe;" horiz-adv-x="21" 
d="M-9 464l4 -2l-3 -4l-3 3z" />
    <glyph glyph-name="oe" unicode="&#x153;" horiz-adv-x="535" 
d="M460 167q12 15 23 42t11 54q0 32 -17 48t-44 16q-30 0 -57 -22.5t-49 -62.5q-7 -13 -17 -37l-46 22l16 28l17 28q-12 16 -22 24q-31 25 -67 25q-40 0 -65 -18.5t-25 -58.5q0 -29 12 -52t28 -34q21 7 50 7q46 0 84 -30q12 -10 29 -30q16 19 27 28q35 28 76 28q19 0 36 -5z
M119 151q-20 14 -33 40q-16 31 -16 67q0 59 37.5 87t100.5 28q46 0 84 -30q12 -10 29 -30q14 19 25 28q34 28 78 28v75h-424v38h602v-38h-130v-81q32 -8 51 -35t19 -73q0 -31 -14 -65q-10 -25 -25 -44q20 -17 29.5 -43.5t9.5 -56.5q0 -61 -47 -115q-15 -18 -47 -42l-37 37
q28 17 41 31q42 43 42 101q0 36 -17.5 54t-43.5 18q-30 0 -57 -22.5t-49 -62.5q-7 -13 -17 -37l-46 21l17 31l16 26q-12 16 -22 24q-31 25 -67 25q-38 0 -64 -23t-26 -64q0 -53 54 -90q18 -12 54 -26l-23 -41q-44 20 -66 36q-67 51 -67 124q0 34 13 59t36 41z" />
    <glyph glyph-name="florin" unicode="&#x192;" horiz-adv-x="247" 
d="M336 250h-168v-65q2 -11 0 -15q-5 -8 -19 -8t-59 46t-45 58q0 14 9 19.5t18 5.5h46v153h-118v38h259v-38h-91v-153h168v-41zM337 148l-234 -146l-30 37l264 145v-36z" />
    <glyph glyph-name="quotesinglbase" unicode="&#x201a;" horiz-adv-x="328" 
d="M417 444h-57v38h57v-38zM431 183q-76 13 -139 43q-32 15 -66 37q-11 7 -26 18l-70 -49l-74 -50l-30 38l71 43q12 7 48 31q5 3 13 9q-21 15 -31 25q-32 33 -32 72q0 37 26 62t65 25q40 0 71 -24.5t31 -62.5q0 -34 -28 -69q-9 -11 -29 -28q14 -8 24 -13q31 -16 59 -27
t61 -20t53 -9q1 1 3 2q4 -13 4 -35q0 -18 -4 -18zM237 397q0 23 -13.5 39.5t-36.5 16.5q-22 0 -35.5 -15.5t-13.5 -37.5q0 -32 25 -55q19 -18 29 -18q15 12 22 20q23 26 23 50z" />
    <glyph glyph-name="quotedblbase" unicode="&#x201e;" horiz-adv-x="345" 
d="M356 444h-78q10 -7 15 -13q34 -37 34 -95q0 -74 -48 -120q-57 -54 -124 -54l153 -130l-32 -34l-223 191l32 33l31 -26h11q34 0 59.5 9.5t45 26t32.5 39.5t13 45v5t-1 5q-15 -14 -25 -20q-31 -20 -60 -20q-46 0 -77 27t-31 72q0 24 13 44q4 6 14 15h-110v38h356v-38z
M271 375q-9 24 -17 35q-25 36 -62 36q-29 0 -44.5 -16.5t-15.5 -42.5q0 -25 19 -44t45 -19q33 0 57 25q8 8 18 26z" />
    <glyph glyph-name="dagger" unicode="&#x2020;" horiz-adv-x="199" 
d="M210 444h-210v38h210v-38zM266 233q-14 -6 -24 -9q-30 -9 -58 -9q-52 0 -107 22q-18 7 -45 23v37q19 -12 65 -25.5t78 -13.5q27 0 61 11q11 3 30 12v-48z" />
    <glyph glyph-name="daggerdbl" unicode="&#x2021;" horiz-adv-x="199" 
d="M533 478h-59q-20 22 -39 45q-48 51 -98 84q-69 46 -125 46q-38 0 -68 -28t-30 -76q0 -22 8 -47q2 -8 8 -20h80v-38h-78v-444h-49v444h-83v38h87q-7 14 -10 23q-10 27 -10 50q0 68 41 102.5t109 34.5q71 0 152 -55q57 -39 117 -103q23 -28 47 -56z" />
    <glyph glyph-name="ellipsis" unicode="&#x2026;" horiz-adv-x="467" 
d="M479 444h-148v38h148v-38zM553 129q-19 -14 -31 -21q-40 -22 -76 -22q-53 0 -92 34t-39 78l-115 83l-70 -49l-74 -50l-30 38l71 43q12 7 48 31q5 3 13 9q-21 15 -31 25q-32 33 -32 72q0 37 26 62t65 25q40 0 71 -24.5t31 -62.5q0 -34 -28 -69q-9 -11 -29 -28l86 -60
q0 38 33 65.5t85 27.5q21 0 36 -3t27 -7l12 -46q-10 6 -18 9q-26 10 -51 10q-36 0 -58 -24t-22 -63q0 -37 24 -62t63 -25q27 0 57 17q43 25 48 40v-53zM237 397q0 23 -13.5 39.5t-36.5 16.5q-22 0 -35.5 -15.5t-13.5 -37.5q0 -32 25 -55q19 -18 29 -18q15 12 22 20
q23 26 23 50z" />
    <glyph glyph-name="guilsinglright" unicode="&#x203a;" horiz-adv-x="535" 
d="M424 444h-424v38h602v-38h-130v-122q34 -13 52 -45t18 -80q0 -80 -55 -150q-18 -23 -56 -54l-37 37q34 27 50 47q50 61 50 130q0 39 -19.5 59t-47.5 20t-50 -19q-28 -23 -51 -70q-7 -15 -18 -43l-46 23l18 36l17 31q-14 16 -24 24q-32 25 -65 25q-39 0 -64.5 -26.5
t-25.5 -69.5q0 -66 62 -116q20 -16 63 -37l-23 -41q-40 0 -103 75q-47 56 -47 122q0 61 37.5 97.5t100.5 36.5q46 0 84 -30q12 -10 29 -30q14 19 25 28q34 28 78 28v114z" />
    </font>
</defs>
</svg>
